<?xml version="1.0" encoding="UTF-8"?>
<svg version="1.1" xmlns="http://www.w3.org/2000/svg" width="500" height="500">
<path d="M0 0 C7.54775234 5.71047052 12.91786208 13.16251153 16.625 21.8125 C16.625 22.4725 16.625 23.1325 16.625 23.8125 C17.37523437 23.94785156 18.12546875 24.08320313 18.8984375 24.22265625 C28.90381675 26.32706221 36.86817287 30.71143959 43.3125 38.78515625 C49.53791023 48.4011917 51.53568706 57.48663135 50.625 68.8125 C48.21723286 79.31036471 42.76138132 87.97545549 34.0625 94.30859375 C27.18067993 98.5545885 19.82299162 100.91796932 11.73190308 100.95967102 C10.7732988 100.96682632 9.81469452 100.97398163 8.82704163 100.98135376 C7.26692604 100.98538712 7.26692604 100.98538712 5.67529297 100.98950195 C4.57057144 100.99607315 3.46584991 101.00264435 2.32765198 101.00941467 C-1.32583691 101.02911336 -4.97928474 101.04080332 -8.6328125 101.05078125 C-9.88324215 101.05485678 -11.1336718 101.0589323 -12.42199326 101.06313133 C-18.35989773 101.08183114 -24.29778923 101.09639926 -30.23571599 101.1047433 C-37.06432368 101.1145002 -43.89260589 101.14078577 -50.72109902 101.18124419 C-56.65576309 101.21518607 -62.59034859 101.22690003 -68.52511215 101.23094749 C-71.03918539 101.23580563 -73.55325534 101.24739739 -76.06726456 101.26598549 C-79.5947453 101.29044388 -83.12138545 101.28939904 -86.64892578 101.2824707 C-87.67685745 101.29528076 -88.70478912 101.30809082 -89.76387024 101.32128906 C-96.97222961 101.26997964 -102.76624254 99.65776348 -109.375 96.8125 C-109.417721 95.14638095 -109.41563832 93.47867115 -109.375 91.8125 C-108.88 91.3175 -108.88 91.3175 -108.375 90.8125 C-105.33867626 91.15623476 -102.38095823 91.53821577 -99.42859745 92.34320545 C-97.16690176 92.86005526 -95.1492985 92.94126655 -92.8299408 92.94621277 C-91.92319611 92.95047775 -91.01645142 92.95474274 -90.08222961 92.95913696 C-89.09466171 92.95868378 -88.10709381 92.95823059 -87.08959961 92.95776367 C-86.04354553 92.96112228 -84.99749146 92.9644809 -83.91973877 92.96794128 C-80.45559506 92.97745237 -76.99149972 92.97939482 -73.52734375 92.98046875 C-71.11560547 92.98368242 -68.70386739 92.98704657 -66.29212952 92.99055481 C-61.23063709 92.99654732 -56.16916174 92.9983947 -51.10766602 92.99780273 C-44.64063257 92.99770138 -38.17370957 93.01132547 -31.70670223 93.02857494 C-26.72137455 93.03973004 -21.73607321 93.04172082 -16.75073433 93.04119301 C-14.36786075 93.04236891 -11.98498641 93.04676872 -9.60212517 93.05452538 C-6.25672723 93.06439124 -2.91156434 93.06142069 0.43383789 93.05541992 C1.40723618 93.06103943 2.38063446 93.06665894 3.38352966 93.07244873 C14.23976165 93.02329908 23.9585849 91.75447536 32.625 84.8125 C40.40373242 76.76007144 42.11777595 69.580413 41.93359375 58.5078125 C41.21812923 49.94035132 36.94357239 43.51084442 30.625 37.8125 C25.72485432 34.3793418 20.70026717 33.23796526 14.82421875 32.5 C11.88466967 31.58106459 11.19978894 30.43269968 9.625 27.8125 C8.65699968 25.89005679 7.72162038 23.95097735 6.8125 22 C1.77573383 11.86489351 -4.3808918 5.80747575 -15.1484375 1.7734375 C-26.84087108 -1.73101738 -37.05550546 -0.48983175 -47.99609375 5.16796875 C-57.0453564 10.86000074 -61.59194159 18.43295639 -66.375 27.8125 C-68.025 27.4825 -69.675 27.1525 -71.375 26.8125 C-72.29746314 19.74028262 -69.35265103 15.49879558 -65.375 9.8125 C-64.70791016 8.84763672 -64.70791016 8.84763672 -64.02734375 7.86328125 C-48.66128995 -12.0722696 -19.81938862 -12.74966768 0 0 Z " fill="#1FEDF1" transform="translate(310.375,168.1875)"/>
<path d="M0 0 C0.33 0.33 0.66 0.66 1 1 C2.60213812 1.1038017 4.20883295 1.13796575 5.8143158 1.14476013 C6.85615524 1.15165863 7.89799469 1.15855713 8.97140503 1.16566467 C10.12415924 1.16827805 11.27691345 1.17089142 12.46459961 1.17358398 C13.6709758 1.180271 14.87735199 1.18695801 16.12028503 1.19384766 C18.74983532 1.20793669 21.37932942 1.22025658 24.00889397 1.22979546 C28.16397689 1.24521113 32.31898281 1.26915941 36.47401428 1.29469299 C48.29113915 1.36599557 60.10830815 1.42572138 71.92553711 1.47680664 C78.44787931 1.50507797 84.97014493 1.54044146 91.4924069 1.58346039 C95.62563305 1.61028928 99.75877252 1.62815957 103.89206874 1.63949764 C107.06343249 1.65073886 110.23470239 1.67486848 113.40600586 1.69702148 C114.55673584 1.69761063 115.70746582 1.69819977 116.89306641 1.69880676 C117.93772568 1.70852509 118.98238495 1.71824341 120.05870056 1.72825623 C121.42561491 1.73460413 121.42561491 1.73460413 122.8201437 1.74108028 C125 2 125 2 127 4 C126.625 6.625 126.625 6.625 126 9 C123.03864461 9.98711846 121.15778189 10.11687699 118.07252502 10.10006714 C117.05606903 10.09710632 116.03961304 10.09414551 114.99235535 10.09109497 C113.87798599 10.08278656 112.76361664 10.07447815 111.61547852 10.06591797 C109.8541861 10.05890869 109.8541861 10.05890869 108.05731201 10.05175781 C104.83622396 10.03849523 101.61518592 10.02099511 98.39412427 10.00259924 C95.02342128 9.98518431 91.65270038 9.97579543 88.28196716 9.96633911 C76.79916069 9.93290353 65.31642715 9.89125848 53.83374023 9.82861328 C47.49161366 9.79409495 41.14954103 9.77028308 34.80733055 9.75840485 C31.45142513 9.75163217 28.0957486 9.73916889 24.73993111 9.71337509 C20.99782541 9.68698224 17.25610302 9.67901054 13.51391602 9.67529297 C12.40157089 9.6629361 11.28922577 9.65057922 10.14317322 9.6378479 C9.1238974 9.64052673 8.10462158 9.64320557 7.05445862 9.64596558 C6.16974664 9.64190138 5.28503466 9.63783718 4.37351322 9.63364983 C1.51727866 10.07450771 0.24091292 11.23885564 -2 13 C-5.4803645 12.92897215 -7.29485909 12.61415498 -9.9375 10.3125 C-11.41325591 7.10056066 -11.06444212 5.33525198 -10 2 C-6.86518541 -1.59923157 -4.41487741 -1.17730064 0 0 Z " fill="#0EBEF6" transform="translate(173,222)"/>
<path d="M0 0 C0.62504645 0.33949677 1.25009291 0.67899353 1.89408016 1.02877808 C4.22210918 2.10243377 5.70900831 2.24255692 8.25721741 2.22705078 C9.09979599 2.22690979 9.94237457 2.2267688 10.81048584 2.22662354 C12.18445526 2.21112457 12.18445526 2.21112457 13.58618164 2.1953125 C15.04286507 2.1909317 15.04286507 2.1909317 16.52897644 2.1864624 C18.63627722 2.17885459 20.74356522 2.16662579 22.85081673 2.15032959 C26.18307679 2.12482457 29.51517787 2.11177737 32.84751892 2.10205078 C39.91925057 2.07918336 46.99085138 2.04069049 54.0625 2 C62.25929769 1.95286089 70.45602056 1.91206153 78.65292168 1.88812256 C81.94075859 1.87512609 85.22836742 1.85011171 88.51612854 1.82470703 C90.52515461 1.81744406 92.53418281 1.81074034 94.54321289 1.8046875 C95.46121674 1.79435486 96.37922058 1.78402222 97.32504272 1.77337646 C98.16480148 1.77323547 99.00456024 1.77309448 99.86976624 1.77294922 C100.59923997 1.768508 101.3287137 1.76406677 102.0802927 1.75949097 C104 2 104 2 107 4 C106.125 8.875 106.125 8.875 105 10 C103.6663185 10.10299359 102.32728952 10.13792801 100.98965454 10.14476013 C100.12595749 10.15165863 99.26226044 10.15855713 98.37239075 10.16566467 C96.94016426 10.16958473 96.94016426 10.16958473 95.47900391 10.17358398 C94.47905899 10.180271 93.47911407 10.18695801 92.4488678 10.19384766 C90.26951968 10.20793474 88.09015648 10.21981702 85.91078568 10.22979546 C82.46531972 10.24614711 79.0199655 10.26938221 75.57455444 10.29469299 C65.77567064 10.36563137 55.97674092 10.42563689 46.17773438 10.47680664 C40.19189284 10.50854811 34.20617863 10.549813 28.22043991 10.59700203 C25.93425151 10.61305337 23.64803373 10.62536038 21.36180496 10.63390923 C18.16766644 10.64602434 14.97382872 10.67015856 11.77978516 10.69702148 C10.82901596 10.69761063 9.87824677 10.69819977 8.89866638 10.69880676 C8.02932968 10.70852509 7.15999298 10.71824341 6.26431274 10.72825623 C5.50881952 10.73248816 4.7533263 10.7367201 3.97493935 10.74108028 C1.68039192 10.89396878 1.68039192 10.89396878 -1 13 C-4.5625 12.8125 -4.5625 12.8125 -8 12 C-10.31332486 8.53001271 -10.33957563 7.07490752 -10 3 C-7.0410833 -1.43837505 -4.82939683 -1.29569183 0 0 Z " fill="#22BDE9" transform="translate(179,245)"/>
<path d="M0 0 C3.5625 0.25 3.5625 0.25 6.5625 2.25 C8.61518493 2.53874239 8.61518493 2.53874239 10.89601135 2.47705078 C11.7807312 2.47690979 12.66545105 2.4767688 13.57698059 2.47662354 C14.54488022 2.46629089 15.51277985 2.45595825 16.51000977 2.4453125 C17.53136017 2.44239197 18.55271057 2.43947144 19.60501099 2.4364624 C21.82473745 2.42884545 24.0444517 2.41660708 26.26413155 2.40032959 C29.77246148 2.37486532 33.28064074 2.36178787 36.78904724 2.35205078 C44.23443232 2.3291628 51.67969359 2.29066905 59.125 2.25 C67.75347435 2.20289227 76.38187799 2.16208277 85.01045036 2.13812256 C88.47504442 2.12510841 91.93942355 2.1000935 95.40394592 2.07470703 C97.5174236 2.06744521 99.63090329 2.06074135 101.74438477 2.0546875 C102.71430862 2.04435486 103.68423248 2.03402222 104.68354797 2.02337646 C105.565448 2.02323547 106.44734802 2.02309448 107.35597229 2.02294922 C108.12453835 2.018508 108.89310442 2.01406677 109.68496037 2.00949097 C111.5625 2.25 111.5625 2.25 113.5625 4.25 C113.75 6.8125 113.75 6.8125 113.5625 9.25 C112.01402696 10.79847304 110.55663251 10.38416068 108.40029907 10.39476013 C107.05426857 10.40510788 107.05426857 10.40510788 105.68104553 10.41566467 C104.19271461 10.41958473 104.19271461 10.41958473 102.67431641 10.42358398 C101.63535721 10.430271 100.59639801 10.43695801 99.5259552 10.44384766 C97.26148291 10.45793524 94.99699611 10.46981735 92.73250198 10.47979546 C89.15261833 10.49614602 85.57284227 10.51938104 81.99301147 10.54469299 C71.81180135 10.61563471 61.63054704 10.67564014 51.44921875 10.72680664 C45.22996128 10.75854554 39.01082641 10.79980971 32.79166794 10.84700203 C30.41616389 10.86305484 28.04063156 10.87536116 25.66508865 10.88390923 C22.34642293 10.89602237 19.02804695 10.92015576 15.70947266 10.94702148 C14.22721443 10.9479052 14.22721443 10.9479052 12.7150116 10.94880676 C11.81201828 10.95852509 10.90902496 10.96824341 9.97866821 10.97825623 C9.19367762 10.98248816 8.40868702 10.9867201 7.59990883 10.99108028 C5.25117941 11.13588457 5.25117941 11.13588457 2.5625 13.25 C-0.86068917 13.10736712 -2.76629221 12.83460033 -5.375 10.5625 C-6.82300221 7.41096578 -6.367426 5.54050737 -5.4375 2.25 C-3.4375 0.25 -3.4375 0.25 0 0 Z " fill="#11ACF7" transform="translate(154.4375,209.75)"/>
<path d="M0 0 C3.03018648 0.34303998 5.98207823 0.71862578 8.92600822 1.53238773 C11.30210273 2.06811355 13.43548515 2.11689228 15.87136841 2.10679626 C16.85001862 2.10528061 17.82866882 2.10376495 18.8369751 2.10220337 C20.43771881 2.09209732 20.43771881 2.09209732 22.07080078 2.08178711 C23.19958649 2.07872055 24.32837219 2.07565399 25.49136353 2.07249451 C27.9424218 2.06534008 30.39347432 2.0559504 32.84451675 2.04459953 C36.71835967 2.02724047 40.59216154 2.01692063 44.46603394 2.00868225 C55.48016261 1.98419515 66.49423536 1.94857702 77.50830078 1.90405273 C84.24315956 1.87691235 90.9779798 1.86025298 97.71288681 1.84918404 C100.28462784 1.84295688 102.85636247 1.83293019 105.42807388 1.81910515 C109.0147537 1.79999079 112.60126458 1.79300737 116.18798828 1.78881836 C117.25919922 1.78005676 118.33041016 1.77129517 119.43408203 1.76226807 C120.40709259 1.76357224 121.38010315 1.7648764 122.38259888 1.76622009 C123.65517642 1.76150649 123.65517642 1.76150649 124.9534626 1.75669765 C127 2 127 2 129 4 C129.33 4.66 129.66 5.32 130 6 C130.99 6 131.98 6 133 6 C133 6.66 133 7.32 133 8 C126.46430084 9.94788349 120.50721549 10.29651308 113.7097168 10.29052734 C112.60455719 10.29724457 111.49939758 10.30396179 110.36074829 10.31088257 C106.72352548 10.32981075 103.08648769 10.33378413 99.44921875 10.3359375 C96.90867539 10.3423688 94.36813277 10.34909741 91.82759094 10.35610962 C86.50751735 10.3680693 81.18751208 10.37187774 75.86743164 10.37060547 C69.74275876 10.36940508 63.61843883 10.39049659 57.49385518 10.4220928 C51.57358465 10.45153206 45.65342052 10.45857792 39.73307228 10.45738602 C37.22738008 10.45973783 34.72168494 10.46853754 32.21603966 10.48405075 C28.70322185 10.50376444 25.1913007 10.49785078 21.6784668 10.48583984 C20.65524826 10.49707886 19.63202972 10.50831787 18.57780457 10.51989746 C11.38579605 10.45777395 5.59499263 8.83511242 -1 6 C-1.042721 4.33388095 -1.04063832 2.66617115 -1 1 C-0.67 0.67 -0.34 0.34 0 0 Z " fill="#0ACDF9" transform="translate(202,259)"/>
<path d="M0 0 C7.3321875 -0.0928125 7.3321875 -0.0928125 14.8125 -0.1875 C16.35139893 -0.21481201 17.89029785 -0.24212402 19.47583008 -0.27026367 C20.68650146 -0.27775635 21.89717285 -0.28524902 23.14453125 -0.29296875 C25.00621948 -0.31653442 25.00621948 -0.31653442 26.90551758 -0.34057617 C30 0 30 0 31.90356445 1.32885742 C33.64255919 3.97936265 33.39609623 6.37775762 33.375 9.5 C33.38660156 11.21703125 33.38660156 11.21703125 33.3984375 12.96875 C33 16 33 16 31.70703125 17.83203125 C29.0368027 19.65902973 26.11169351 20.23675442 23 21 C25.06756277 23.7972908 26.14440371 24.02692273 29.6875 24.6875 C30.780625 24.790625 31.87375 24.89375 33 25 C34.04449911 28.13349732 33.93423645 28.98968256 33 32 C29.12571247 32.74188485 25.8610838 32.885526 22 32 C18.70514487 29.41268047 16.05426813 26.64768414 13.3125 23.50390625 C11.1813303 20.79245577 11.1813303 20.79245577 8 20 C8 23.96 8 27.92 8 32 C2.25 33.125 2.25 33.125 0 32 C0 21.44 0 10.88 0 0 Z M8 7 C8 8.65 8 10.3 8 12 C13.94 12 19.88 12 26 12 C26 10.35 26 8.7 26 7 C20.06 7 14.12 7 8 7 Z " fill="#1B85F3" transform="translate(347,289)"/>
<path d="M0 0 C4.40365889 3.32079195 6.63447982 6.42665668 7.8125 11.875 C7.9775 12.431875 8.1425 12.98875 8.3125 13.5625 C9.7975 14.0575 9.7975 14.0575 11.3125 14.5625 C12.92371292 17.46268326 13.37895111 19.06411669 12.9375 22.375 C12.73125 23.096875 12.525 23.81875 12.3125 24.5625 C11.6525 24.5625 10.9925 24.5625 10.3125 24.5625 C10.6425 22.9125 10.9725 21.2625 11.3125 19.5625 C9.8275 19.0675 9.8275 19.0675 8.3125 18.5625 C8.3125 17.9025 8.3125 17.2425 8.3125 16.5625 C7.61125 16.541875 6.91 16.52125 6.1875 16.5 C3.03467714 15.47190559 2.57226713 14.8936874 0.625 12.375 C-5.9892258 4.15783683 -15.74209841 0.68567195 -25.92578125 -0.75390625 C-36.27335248 -1.34033168 -46.86264996 2.97817496 -54.6875 9.5625 C-60.13038998 14.623879 -63.34332682 21.00460011 -66.6875 27.5625 C-68.3375 27.2325 -69.9875 26.9025 -71.6875 26.5625 C-72.60996314 19.49028262 -69.66515103 15.24879558 -65.6875 9.5625 C-65.24277344 8.91925781 -64.79804688 8.27601563 -64.33984375 7.61328125 C-48.83024412 -12.50850253 -19.86732898 -12.93820267 0 0 Z " fill="#1AD5F0" transform="translate(310.6875,168.4375)"/>
<path d="M0 0 C1.14984375 -0.00386719 2.2996875 -0.00773437 3.484375 -0.01171875 C4.68578125 -0.00011719 5.8871875 0.01148438 7.125 0.0234375 C8.32640625 0.01183594 9.5278125 0.00023437 10.765625 -0.01171875 C12.49039063 -0.00591797 12.49039063 -0.00591797 14.25 0 C15.83167969 0.00507568 15.83167969 0.00507568 17.4453125 0.01025391 C20.125 0.3984375 20.125 0.3984375 21.9296875 1.73583984 C24.38510026 5.15115048 24.24243722 8.32380826 24.22265625 12.37890625 C24.21943359 13.54228516 24.21621094 14.70566406 24.21289062 15.90429688 C24.20032227 17.72670898 24.20032227 17.72670898 24.1875 19.5859375 C24.18298828 20.81248047 24.17847656 22.03902344 24.17382812 23.30273438 C24.16203065 26.33468418 24.14556921 29.36653656 24.125 32.3984375 C21.485 32.3984375 18.845 32.3984375 16.125 32.3984375 C16.125 28.4384375 16.125 24.4784375 16.125 20.3984375 C10.185 20.3984375 4.245 20.3984375 -1.875 20.3984375 C-1.875 24.3584375 -1.875 28.3184375 -1.875 32.3984375 C-4.185 32.3984375 -6.495 32.3984375 -8.875 32.3984375 C-8.94920211 28.32340956 -9.0036257 24.24864358 -9.03979492 20.1730957 C-9.05487397 18.78695831 -9.0753405 17.40086856 -9.10131836 16.01489258 C-9.13773716 14.02185604 -9.15313018 12.02847027 -9.16796875 10.03515625 C-9.19153442 8.23630981 -9.19153442 8.23630981 -9.21557617 6.40112305 C-8.875 3.3984375 -8.875 3.3984375 -7.72387695 1.50854492 C-5.09410136 -0.07043165 -3.05604925 0.009807 0 0 Z M-1.875 7.3984375 C-1.875 9.0484375 -1.875 10.6984375 -1.875 12.3984375 C4.065 12.3984375 10.005 12.3984375 16.125 12.3984375 C16.125 10.7484375 16.125 9.0984375 16.125 7.3984375 C10.185 7.3984375 4.245 7.3984375 -1.875 7.3984375 Z " fill="#1D85F1" transform="translate(215.875,288.6015625)"/>
<path d="M0 0 C7.3321875 -0.0928125 7.3321875 -0.0928125 14.8125 -0.1875 C16.35139893 -0.21481201 17.89029785 -0.24212402 19.47583008 -0.27026367 C20.68650146 -0.27775635 21.89717285 -0.28524902 23.14453125 -0.29296875 C25.00621948 -0.31653442 25.00621948 -0.31653442 26.90551758 -0.34057617 C30 0 30 0 31.90356445 1.15112305 C33.46371118 3.78193827 33.38865689 5.82717488 33.3984375 8.875 C33.40423828 10.59976562 33.40423828 10.59976562 33.41015625 12.359375 C33.39855469 13.56078125 33.38695312 14.7621875 33.375 16 C33.38660156 17.20140625 33.39820313 18.4028125 33.41015625 19.640625 C33.40628906 20.79046875 33.40242188 21.9403125 33.3984375 23.125 C33.39505371 24.17945313 33.39166992 25.23390625 33.38818359 26.3203125 C33 29 33 29 31.69189453 30.82250977 C26.15829225 34.67367337 16.86628622 32.9253478 10.5 32.5625 C5.3025 32.2840625 5.3025 32.2840625 0 32 C0 21.44 0 10.88 0 0 Z M8 7 C8 12.94 8 18.88 8 25 C13.94 25 19.88 25 26 25 C26 19.06 26 13.12 26 7 C20.06 7 14.12 7 8 7 Z " fill="#2186ED" transform="translate(136,289)"/>
<path d="M0 0 C1.19496094 -0.00064453 2.38992188 -0.00128906 3.62109375 -0.00195312 C4.87019531 0.01802734 6.11929687 0.03800781 7.40625 0.05859375 C8.65535156 0.05150391 9.90445312 0.04441406 11.19140625 0.03710938 C20.27373625 0.10079346 20.27373625 0.10079346 22.76220703 1.65600586 C24.39180079 4.27705754 24.29482581 6.29800203 24.3046875 9.37109375 C24.31048828 11.09585937 24.31048828 11.09585937 24.31640625 12.85546875 C24.30480469 14.056875 24.29320312 15.25828125 24.28125 16.49609375 C24.29285156 17.6975 24.30445313 18.89890625 24.31640625 20.13671875 C24.31253906 21.2865625 24.30867188 22.43640625 24.3046875 23.62109375 C24.30130371 24.67554688 24.29791992 25.73 24.29443359 26.81640625 C23.90625 29.49609375 23.90625 29.49609375 22.76220703 31.33618164 C18.44479568 34.03442175 12.32915349 32.96153593 7.40625 32.93359375 C5.53259766 32.96356445 5.53259766 32.96356445 3.62109375 32.99414062 C2.42613281 32.99349609 1.23117187 32.99285156 0 32.9921875 C-1.09634766 32.99404053 -2.19269531 32.99589355 -3.32226562 32.99780273 C-6.09375 32.49609375 -6.09375 32.49609375 -7.94970703 30.80883789 C-9.32727898 28.02400241 -9.48124168 26.09845065 -9.4921875 22.99609375 C-9.49798828 21.41828125 -9.49798828 21.41828125 -9.50390625 19.80859375 C-9.49230469 18.71546875 -9.48070312 17.62234375 -9.46875 16.49609375 C-9.48035156 15.40296875 -9.49195313 14.30984375 -9.50390625 13.18359375 C-9.50003906 12.13171875 -9.49617188 11.07984375 -9.4921875 9.99609375 C-9.48880371 9.03703125 -9.48541992 8.07796875 -9.48193359 7.08984375 C-8.57045493 0.99956113 -5.81010771 -0.00982014 0 0 Z M-1.09375 7.49609375 C-1.93561703 11.70542888 -2.19910527 15.06592242 -2.15625 19.30859375 C-2.135625 21.35046875 -2.115 23.39234375 -2.09375 25.49609375 C4.17625 25.49609375 10.44625 25.49609375 16.90625 25.49609375 C16.90625 19.55609375 16.90625 13.61609375 16.90625 7.49609375 C10.96625 7.49609375 5.02625 7.49609375 -1.09375 7.49609375 Z " fill="#1D86F1" transform="translate(321.09375,288.50390625)"/>
<path d="M0 0 C3.5 0.375 3.5 0.375 6.5 2.375 C9.45864852 2.69119231 9.45864852 2.69119231 12.86743164 2.66210938 C14.18211929 2.67552368 15.49680695 2.68893799 16.85133362 2.70275879 C17.55346041 2.70532181 18.2555872 2.70788483 18.97899055 2.71052551 C21.17688046 2.71881306 23.37435456 2.73931431 25.5721283 2.76306152 C31.0288112 2.81948027 36.48559485 2.85472034 41.94244385 2.89068604 C46.55610064 2.92189226 51.16955492 2.96104861 55.78304863 3.01094055 C57.95126388 3.03105158 60.11932371 3.03933602 62.28761292 3.04724121 C63.59914841 3.06065552 64.9106839 3.07406982 66.26196289 3.08789062 C67.42095596 3.09518188 68.57994904 3.10247314 69.77406311 3.10998535 C72.5 3.375 72.5 3.375 74.5 5.375 C73.96428571 8.91071429 73.96428571 8.91071429 72.5 10.375 C70.46082075 10.48828774 68.41774348 10.53185522 66.37548828 10.54858398 C65.06387726 10.56207382 63.75226624 10.57556366 62.40090942 10.58946228 C61.6954108 10.59452223 60.98991219 10.59958218 60.26303482 10.60479546 C58.06092077 10.62116356 55.8589804 10.64439982 53.6569519 10.66969299 C47.39459851 10.74058113 41.1321734 10.80058785 34.86962891 10.85180664 C31.04286865 10.88358691 27.21630602 10.92486248 23.38970566 10.97200203 C21.92969187 10.98803117 20.4696325 11.00034854 19.00955582 11.00890923 C16.96739855 11.02105351 14.92533135 11.04623571 12.88330078 11.07202148 C11.72049591 11.08232895 10.55769104 11.09263641 9.35964966 11.10325623 C6.3001183 11.1662823 6.3001183 11.1662823 3.5 13.375 C-1.63776016 13.91018335 -1.63776016 13.91018335 -4.3125 12.25 C-5.9995896 9.58617432 -6.37177883 7.51641856 -6.5 4.375 C-4.94632632 0.68502502 -4.00952896 0.42959239 0 0 Z " fill="#2E98E2" transform="translate(145.5,232.625)"/>
<path d="M0 0 C10.89 0 21.78 0 33 0 C33 2.31 33 4.62 33 7 C28.71 7 24.42 7 20 7 C20 12.94 20 18.88 20 25 C24.29 25 28.58 25 33 25 C33 27.31 33 29.62 33 32 C22.11 32 11.22 32 0 32 C-1 27 -1 27 0 25 C4.29 25 8.58 25 13 25 C13 19.06 13 13.12 13 7 C8.71 7 4.42 7 0 7 C0 4.69 0 2.38 0 0 Z " fill="#1D86F1" transform="translate(242,289)"/>
<path d="M0 0 C0.33 0.33 0.66 0.66 1 1 C2.59381078 1.10812513 4.19237647 1.14684297 5.78981018 1.15821838 C6.82612579 1.1680072 7.86244141 1.17779602 8.93016052 1.18788147 C10.07670609 1.19363693 11.22325165 1.1993924 12.40454102 1.20532227 C13.60437622 1.21522186 14.80421143 1.22512146 16.04040527 1.23532104 C19.33982238 1.26157133 22.63921448 1.28340742 25.9386723 1.30332303 C29.3833717 1.32514514 32.82802642 1.35255223 36.27268982 1.37937927 C42.79979489 1.42935738 49.32692468 1.47427714 55.85407823 1.51740164 C63.28325189 1.56673038 70.71238073 1.62166463 78.14151108 1.67708123 C93.42763268 1.7909798 108.71379543 1.8978016 124 2 C124 2.33 124 2.66 124 3 C81.43 3.495 81.43 3.495 38 4 C37.34 5.32 36.68 6.64 36 8 C34.0706235 9.9293765 30.45899453 9.18361655 27.82421875 9.2109375 C26.34178598 9.23901392 24.85936426 9.26767843 23.37695312 9.296875 C21.03328856 9.33809955 18.6898284 9.37497378 16.34594727 9.40136719 C14.08826721 9.42901322 11.8315333 9.47489243 9.57421875 9.5234375 C8.87616623 9.52669037 8.17811371 9.52994324 7.45890808 9.53329468 C3.26540895 9.63901017 1.16625834 10.29763428 -2 13 C-5.4803645 12.92897215 -7.29485909 12.61415498 -9.9375 10.3125 C-11.41325591 7.10056066 -11.06444212 5.33525198 -10 2 C-6.86518541 -1.59923157 -4.41487741 -1.17730064 0 0 Z " fill="#1FA5EE" transform="translate(173,222)"/>
<path d="M0 0 C35.64 0.33 71.28 0.66 108 1 C108.495 2.98 108.495 2.98 109 5 C73.69 5 38.38 5 2 5 C1.67 6.32 1.34 7.64 1 9 C-0.98 8.34 -2.96 7.68 -5 7 C-4.67 5.35 -4.34 3.7 -4 2 C-3.01 2 -2.02 2 -1 2 C-0.67 1.34 -0.34 0.68 0 0 Z " fill="#0CC0F9" transform="translate(176,248)"/>
<path d="M0 0 C10.89 0 21.78 0 33 0 C33 2.31 33 4.62 33 7 C29.04 7 25.08 7 21 7 C21 15.25 21 23.5 21 32 C19 33 19 33 13 32 C13 23.75 13 15.5 13 7 C8.71 7 4.42 7 0 7 C0 4.69 0 2.38 0 0 Z " fill="#1E85EE" transform="translate(171,289)"/>
<path d="M0 0 C2.31 0 4.62 0 7 0 C7.33 7.92 7.66 15.84 8 24 C16.25 24.33 24.5 24.66 33 25 C33 27.31 33 29.62 33 32 C28.78253675 32.0989211 24.56568879 32.17149012 20.34741211 32.21972656 C18.91272214 32.23983525 17.47811407 32.26712673 16.04370117 32.30175781 C13.98075161 32.3503146 11.91888569 32.37297406 9.85546875 32.390625 C7.99378052 32.4220459 7.99378052 32.4220459 6.09448242 32.45410156 C3 32 3 32 1.08984375 30.3828125 C-0.3338852 27.2700001 -0.33961143 24.90483826 -0.29296875 21.484375 C-0.28330078 20.23398437 -0.27363281 18.98359375 -0.26367188 17.6953125 C-0.2259668 15.74238281 -0.2259668 15.74238281 -0.1875 13.75 C-0.16719727 11.77386719 -0.16719727 11.77386719 -0.14648438 9.7578125 C-0.11112551 6.50479679 -0.06177033 3.252604 0 0 Z " fill="#2485E7" transform="translate(277,289)"/>
<path d="M0 0 C0 0.66 0 1.32 0 2 C-10.395 2.495 -10.395 2.495 -21 3 C-21 3.66 -21 4.32 -21 5 C-22.98 5.33 -24.96 5.66 -27 6 C-27 6.99 -27 7.98 -27 9 C-25.02 9 -23.04 9 -21 9 C-21 8.01 -21 7.02 -21 6 C-18.54220024 5.77873822 -16.08472352 5.57249605 -13.625 5.375 C-12.92632812 5.31054688 -12.22765625 5.24609375 -11.5078125 5.1796875 C-9.67630889 5.03880261 -7.83687252 5.01238341 -6 5 C-5.34 5.66 -4.68 6.32 -4 7 C-5.52367187 7.22042969 -5.52367187 7.22042969 -7.078125 7.4453125 C-19.39425947 9.38285073 -30.0437052 12.42570345 -38.2421875 22.4765625 C-41.23412215 26.77165091 -43.68612288 31.31089296 -46 36 C-47.65 35.67 -49.3 35.34 -51 35 C-51.92246314 27.92778262 -48.97765103 23.68629558 -45 18 C-44.55527344 17.35675781 -44.11054688 16.71351563 -43.65234375 16.05078125 C-33.01018615 2.2439004 -16.35037586 -0.8141266 0 0 Z " fill="#1BBEF1" transform="translate(290,160)"/>
<path d="M0 0 C3.04012276 0.34416484 6.00220078 0.73225933 8.96112061 1.52622986 C11.12931922 2.03004964 13.08549611 2.15842913 15.30957031 2.20532227 C16.5704245 2.2352401 16.5704245 2.2352401 17.85675049 2.26576233 C18.75480408 2.28247482 19.65285767 2.29918732 20.578125 2.31640625 C21.5046991 2.33718735 22.43127319 2.35796844 23.38592529 2.37937927 C26.34054272 2.44466961 29.29524768 2.50366431 32.25 2.5625 C34.25521732 2.60570473 36.26042585 2.64931965 38.265625 2.69335938 C43.17699404 2.80032999 48.08845097 2.90165518 53 3 C53 3.33 53 3.66 53 4 C46.05827612 4.02529373 39.11656406 4.04284304 32.17480469 4.05493164 C29.81184444 4.05996959 27.44888732 4.06680008 25.0859375 4.07543945 C21.69530465 4.08752854 18.30471291 4.09323359 14.9140625 4.09765625 C13.85256989 4.10281754 12.79107727 4.10797882 11.69741821 4.11329651 C10.71655243 4.11337204 9.73568665 4.11344757 8.72509766 4.11352539 C7.85905914 4.115746 6.99302063 4.11796661 6.10073853 4.12025452 C4 4 4 4 2 3 C2.33 3.66 2.66 4.32 3 5 C5.02463255 5.65213292 5.02463255 5.65213292 7 6 C7 6.66 7 7.32 7 8 C22.83778751 7.89277241 38.67552532 7.78001305 54.51322556 7.66066074 C61.86687388 7.60537303 69.22052706 7.55189836 76.57421875 7.50268555 C82.98338411 7.45978915 89.39251439 7.41349743 95.80162549 7.36312145 C99.19546476 7.33656444 102.58929726 7.31171253 105.98317719 7.29092598 C109.77106073 7.26687308 113.55885177 7.23681941 117.34667969 7.20532227 C119.03629318 7.19668907 119.03629318 7.19668907 120.76004028 7.18788147 C121.79206573 7.17809265 122.82409119 7.16830383 123.88739014 7.15821838 C124.78337292 7.15176583 125.6793557 7.14531328 126.60248947 7.1386652 C128.86689291 7.00769854 130.82802507 6.63346249 133 6 C133 6.66 133 7.32 133 8 C126.46430084 9.94788349 120.50721549 10.29651308 113.7097168 10.29052734 C112.60455719 10.29724457 111.49939758 10.30396179 110.36074829 10.31088257 C106.72352548 10.32981075 103.08648769 10.33378413 99.44921875 10.3359375 C96.90867539 10.3423688 94.36813277 10.34909741 91.82759094 10.35610962 C86.50751735 10.3680693 81.18751208 10.37187774 75.86743164 10.37060547 C69.74275876 10.36940508 63.61843883 10.39049659 57.49385518 10.4220928 C51.57358465 10.45153206 45.65342052 10.45857792 39.73307228 10.45738602 C37.22738008 10.45973783 34.72168494 10.46853754 32.21603966 10.48405075 C28.70322185 10.50376444 25.1913007 10.49785078 21.6784668 10.48583984 C20.65524826 10.49707886 19.63202972 10.50831787 18.57780457 10.51989746 C11.38579605 10.45777395 5.59499263 8.83511242 -1 6 C-1.042721 4.33388095 -1.04063832 2.66617115 -1 1 C-0.67 0.67 -0.34 0.34 0 0 Z " fill="#34C0E2" transform="translate(202,259)"/>
<path d="M0 0 C0.91765137 -0.00315216 1.83530273 -0.00630432 2.78076172 -0.009552 C4.27760498 -0.00651566 4.27760498 -0.00651566 5.8046875 -0.00341797 C6.82191895 -0.00437469 7.83915039 -0.00533142 8.88720703 -0.00631714 C11.04264386 -0.00699908 13.19808272 -0.00514382 15.35351562 -0.00097656 C18.66541121 0.00437148 21.97717117 -0.0009211 25.2890625 -0.00732422 C27.37760447 -0.00666344 29.46614635 -0.00538228 31.5546875 -0.00341797 C32.55258301 -0.0054422 33.55047852 -0.00746643 34.57861328 -0.009552 C35.49626465 -0.00639984 36.41391602 -0.00324768 37.359375 0 C38.17132324 0.00079559 38.98327148 0.00159119 39.81982422 0.00241089 C41.6796875 0.12939453 41.6796875 0.12939453 42.6796875 1.12939453 C42.8046875 3.62939453 42.8046875 3.62939453 42.6796875 6.12939453 C41.10668422 7.70239781 39.54284705 7.25664957 37.359375 7.25878906 C36.44172363 7.26194122 35.52407227 7.26509338 34.57861328 7.26834106 C33.58071777 7.26631683 32.58282227 7.2642926 31.5546875 7.26220703 C30.53745605 7.26316376 29.52022461 7.26412048 28.47216797 7.2651062 C26.31673114 7.26578814 24.16129228 7.26393288 22.00585938 7.25976562 C18.69396379 7.25441758 15.38220383 7.25971016 12.0703125 7.26611328 C9.98177053 7.2654525 7.89322865 7.26417135 5.8046875 7.26220703 C4.30784424 7.26524338 4.30784424 7.26524338 2.78076172 7.26834106 C1.86311035 7.2651889 0.94545898 7.26203674 0 7.25878906 C-0.81194824 7.25799347 -1.62389648 7.25719788 -2.46044922 7.25637817 C-4.3203125 7.12939453 -4.3203125 7.12939453 -5.3203125 6.12939453 C-5.4453125 3.62939453 -5.4453125 3.62939453 -5.3203125 1.12939453 C-3.74730922 -0.44360875 -2.18347205 0.00213949 0 0 Z " fill="#0EBFF8" transform="translate(228.3203125,235.87060546875)"/>
<path d="M0 0 C2.00861341 3.61550414 2.14573624 5.72984632 1.5625 9.8125 C-0.23312405 12.56579021 -1.49004922 14.33877461 -4.4375 15.8125 C-8.8506016 16.33218957 -12.29909151 16.66630637 -15.9375 13.9375 C-18.33378391 10.54276446 -18.83497559 8.0602624 -18.7890625 3.8515625 C-18.18766178 0.36343831 -16.17088019 -1.13746486 -13.4375 -3.1875 C-8.72354804 -5.54447598 -3.66793929 -3.29174039 0 0 Z " fill="#0BE9F8" transform="translate(345.4375,175.1875)"/>
<path d="M0 0 C0.66 0.66 1.32 1.32 2 2 C4.29280328 2.33771476 4.29280328 2.33771476 6.9375 2.34375 C7.91460937 2.37339844 8.89171875 2.40304688 9.8984375 2.43359375 C10.92195313 2.45550781 11.94546875 2.47742188 13 2.5 C15.02104122 2.54327166 17.04192556 2.59493969 19.0625 2.65625 C19.96097656 2.67494141 20.85945313 2.69363281 21.78515625 2.71289062 C24 3 24 3 26 5 C25.625 7.625 25.625 7.625 25 10 C24.31373535 10.01981934 23.6274707 10.03963867 22.92041016 10.06005859 C19.82154221 10.15510945 16.72336706 10.26486847 13.625 10.375 C12.54476562 10.4059375 11.46453125 10.436875 10.3515625 10.46875 C9.3203125 10.50742188 8.2890625 10.54609375 7.2265625 10.5859375 C6.27346191 10.6173584 5.32036133 10.6487793 4.33837891 10.68115234 C1.81104824 10.78555796 1.81104824 10.78555796 0 13 C-6.00458716 13.54587156 -6.00458716 13.54587156 -8.9375 11.9375 C-10.6140629 8.88023824 -10.36528977 6.4093712 -10 3 C-7.77611809 -1.05531408 -4.20231132 -0.3820283 0 0 Z " fill="#12A4F7" transform="translate(196,198)"/>
<path d="M0 0 C4.19833317 0.42694914 5.70724864 1.48505929 8.6875 4.375 C7.6975 4.705 6.7075 5.035 5.6875 5.375 C5.6875 6.365 5.6875 7.355 5.6875 8.375 C9.3175 7.385 12.9475 6.395 16.6875 5.375 C16.6875 6.035 16.6875 6.695 16.6875 7.375 C17.3475 7.705 18.0075 8.035 18.6875 8.375 C18.6875 7.715 18.6875 7.055 18.6875 6.375 C19.3475 6.375 20.0075 6.375 20.6875 6.375 C21.0175 7.035 21.3475 7.695 21.6875 8.375 C51.7175 8.705 81.7475 9.035 112.6875 9.375 C112.6875 9.705 112.6875 10.035 112.6875 10.375 C111.86447403 10.37996522 111.86447403 10.37996522 111.02482128 10.38503075 C97.67970083 10.46621912 84.33469575 10.5584236 70.9897337 10.66252708 C64.53622792 10.71253632 58.08273889 10.75886596 51.62915039 10.796875 C45.40455022 10.8336693 39.18008858 10.88001328 32.95560646 10.93306351 C30.57731359 10.95163863 28.19899099 10.96673497 25.82065392 10.97834396 C22.49707131 10.99515301 19.17380814 11.02417528 15.8503418 11.05615234 C14.36572701 11.05939262 14.36572701 11.05939262 12.85112 11.06269836 C11.49446228 11.07944359 11.49446228 11.07944359 10.11039734 11.0965271 C9.32410792 11.10205786 8.53781851 11.10758862 7.72770214 11.11328697 C5.37670221 11.26129668 5.37670221 11.26129668 2.6875 13.375 C-0.73568917 13.23236712 -2.64129221 12.95960033 -5.25 10.6875 C-6.69800221 7.53596578 -6.242426 5.66550737 -5.3125 2.375 C-3.3125 0.375 -3.3125 0.375 0 0 Z " fill="#228FEB" transform="translate(154.3125,209.625)"/>
<path d="M0 0 C0.79587021 0.00718552 1.59174042 0.01437103 2.41172791 0.02177429 C3.22778 0.02223251 4.04383209 0.02269073 4.88461304 0.02316284 C6.61038161 0.0261856 8.33614744 0.03407262 10.06187439 0.0464325 C12.71309498 0.06469327 15.36396661 0.06694218 18.01524353 0.06669617 C19.68907469 0.0716111 21.36290348 0.07743932 23.03672791 0.08427429 C24.23356956 0.08594353 24.23356956 0.08594353 25.45458984 0.08764648 C31.04177264 0.13619403 31.04177264 0.13619403 32.15782166 1.25224304 C32.28282166 3.75224304 32.28282166 3.75224304 32.15782166 6.25224304 C31.15782166 7.25224304 31.15782166 7.25224304 27.55601501 7.36576843 C25.95322309 7.36560929 24.35042605 7.35991368 22.74766541 7.34989929 C21.90563065 7.34848434 21.06359589 7.3470694 20.19604492 7.34561157 C17.49576831 7.33999568 14.79557338 7.32744053 12.09532166 7.31474304 C10.26915097 7.30973009 8.442979 7.30516683 6.61680603 7.30107117 C2.13044623 7.29002108 -2.35585219 7.27274583 -6.84217834 7.25224304 C-7.46717834 4.87724304 -7.46717834 4.87724304 -7.84217834 2.25224304 C-5.25928044 -0.33065486 -3.5192381 0.01468342 0 0 Z " fill="#0EBEF7" transform="translate(235.84217834472656,200.7477569580078)"/>
<path d="M0 0 C1.14984375 -0.00386719 2.2996875 -0.00773437 3.484375 -0.01171875 C4.68578125 -0.00011719 5.8871875 0.01148438 7.125 0.0234375 C8.32640625 0.01183594 9.5278125 0.00023437 10.765625 -0.01171875 C12.49039063 -0.00591797 12.49039063 -0.00591797 14.25 0 C15.83167969 0.00507568 15.83167969 0.00507568 17.4453125 0.01025391 C20.125 0.3984375 20.125 0.3984375 21.9296875 1.73583984 C24.38510026 5.15115048 24.24243722 8.32380826 24.22265625 12.37890625 C24.21943359 13.54228516 24.21621094 14.70566406 24.21289062 15.90429688 C24.20032227 17.72670898 24.20032227 17.72670898 24.1875 19.5859375 C24.18298828 20.81248047 24.17847656 22.03902344 24.17382812 23.30273438 C24.16203065 26.33468418 24.14556921 29.36653656 24.125 32.3984375 C23.795 32.3984375 23.465 32.3984375 23.125 32.3984375 C23.125 24.1484375 23.125 15.8984375 23.125 7.3984375 C22.465 7.3984375 21.805 7.3984375 21.125 7.3984375 C21.021875 6.7590625 20.91875 6.1196875 20.8125 5.4609375 C20.585625 4.7803125 20.35875 4.0996875 20.125 3.3984375 C19.135 3.0684375 18.145 2.7384375 17.125 2.3984375 C16.795 3.3884375 16.465 4.3784375 16.125 5.3984375 C15.465 4.4084375 14.805 3.4184375 14.125 2.3984375 C12.16138136 1.82094947 12.16138136 1.82094947 10 1.7109375 C8.72125 1.6078125 7.4425 1.5046875 6.125 1.3984375 C6.455 2.7184375 6.785 4.0384375 7.125 5.3984375 C7.76308594 5.45902344 8.40117187 5.51960938 9.05859375 5.58203125 C9.88488281 5.66582031 10.71117187 5.74960937 11.5625 5.8359375 C12.79806641 5.95775391 12.79806641 5.95775391 14.05859375 6.08203125 C16.125 6.3984375 16.125 6.3984375 17.125 7.3984375 C17.25 10.3984375 17.25 10.3984375 17.125 13.3984375 C15.57549732 14.94794018 14.02509406 14.61498943 11.87109375 14.71484375 C10.59008789 14.77768555 10.59008789 14.77768555 9.28320312 14.84179688 C8.38537109 14.88111328 7.48753906 14.92042969 6.5625 14.9609375 C5.66080078 15.00412109 4.75910156 15.04730469 3.83007812 15.09179688 C1.59521515 15.19821892 -0.63976308 15.30023738 -2.875 15.3984375 C-3.32875 14.4290625 -3.7825 13.4596875 -4.25 12.4609375 C-5.53286221 9.32764168 -5.53286221 9.32764168 -7.875 8.3984375 C-7.71128906 9.02105469 -7.54757813 9.64367187 -7.37890625 10.28515625 C-6.67965098 14.60536132 -6.77015607 18.84299795 -6.8125 23.2109375 C-6.81701172 24.09458984 -6.82152344 24.97824219 -6.82617188 25.88867188 C-6.83790134 28.05862309 -6.85583505 30.22853922 -6.875 32.3984375 C-7.535 32.3984375 -8.195 32.3984375 -8.875 32.3984375 C-8.94920211 28.32340956 -9.0036257 24.24864358 -9.03979492 20.1730957 C-9.05487397 18.78695831 -9.0753405 17.40086856 -9.10131836 16.01489258 C-9.13773716 14.02185604 -9.15313018 12.02847027 -9.16796875 10.03515625 C-9.19153442 8.23630981 -9.19153442 8.23630981 -9.21557617 6.40112305 C-8.875 3.3984375 -8.875 3.3984375 -7.72387695 1.50854492 C-5.09410136 -0.07043165 -3.05604925 0.009807 0 0 Z M-1.875 7.3984375 C-1.875 9.0484375 -1.875 10.6984375 -1.875 12.3984375 C4.065 12.3984375 10.005 12.3984375 16.125 12.3984375 C16.125 10.7484375 16.125 9.0984375 16.125 7.3984375 C10.185 7.3984375 4.245 7.3984375 -1.875 7.3984375 Z " fill="#2A87E5" transform="translate(215.875,288.6015625)"/>
<path d="M0 0 C1.65 0 3.3 0 5 0 C5 0.99 5 1.98 5 3 C5.66 3.33 6.32 3.66 7 4 C7 8.95 7 13.9 7 19 C12.94 19.33 18.88 19.66 25 20 C25.66 21.32 26.32 22.64 27 24 C26.67 24.66 26.34 25.32 26 26 C22.39610336 26.11601004 18.79268533 26.18718408 15.1875 26.25 C14.16333984 26.28351563 13.13917969 26.31703125 12.08398438 26.3515625 C11.10107422 26.36445313 10.11816406 26.37734375 9.10546875 26.390625 C7.74651489 26.4220459 7.74651489 26.4220459 6.36010742 26.45410156 C4 26 4 26 2.2434082 24.16308594 C0.34761637 20.86508561 -0.12270369 18.28285001 -0.09765625 14.55078125 C-0.09443359 13.70322266 -0.09121094 12.85566406 -0.08789062 11.98242188 C-0.07951172 11.10134766 -0.07113281 10.22027344 -0.0625 9.3125 C-0.05798828 8.41982422 -0.05347656 7.52714844 -0.04882812 6.60742188 C-0.03704983 4.40488013 -0.02060164 2.20247401 0 0 Z " fill="#1885F6" transform="translate(313,295)"/>
<path d="M0 0 C1.78302269 0.00212242 1.78302269 0.00212242 3.60206604 0.00428772 C7.38187219 0.00986511 11.16161814 0.0224135 14.94140625 0.03515625 C17.51106685 0.04017417 20.08072838 0.04473657 22.65039062 0.04882812 C28.93491622 0.05982714 35.21940693 0.07654275 41.50390625 0.09765625 C41.99890625 2.07765625 41.99890625 2.07765625 42.50390625 4.09765625 C21.71390625 4.09765625 0.92390625 4.09765625 -20.49609375 4.09765625 C-20.16609375 3.10765625 -19.83609375 2.11765625 -19.49609375 1.09765625 C-12.99405545 -0.08341796 -6.59428263 -0.02972344 0 0 Z " fill="#12A6F8" transform="translate(175.49609375,236.90234375)"/>
<path d="M0 0 C15.84 0.33 31.68 0.66 48 1 C47.34 2.32 46.68 3.64 46 5 C31.48 5 16.96 5 2 5 C1.67 6.32 1.34 7.64 1 9 C-0.98 8.34 -2.96 7.68 -5 7 C-4.67 5.35 -4.34 3.7 -4 2 C-3.01 2 -2.02 2 -1 2 C-0.67 1.34 -0.34 0.68 0 0 Z " fill="#11A5FA" transform="translate(176,248)"/>
<path d="M0 0 C1.37285156 0.0009668 1.37285156 0.0009668 2.7734375 0.00195312 C3.72734375 0.01806641 4.68125 0.03417969 5.6640625 0.05078125 C7.08332031 0.04594727 7.08332031 0.04594727 8.53125 0.04101562 C19.04803609 0.12225484 19.04803609 0.12225484 22.2890625 3.36328125 C22.37575682 4.85199985 22.39609744 6.34472625 22.38671875 7.8359375 C22.38349609 8.73505859 22.38027344 9.63417969 22.37695312 10.56054688 C22.36857422 11.50607422 22.36019531 12.45160156 22.3515625 13.42578125 C22.34705078 14.37517578 22.34253906 15.32457031 22.33789062 16.30273438 C22.3260636 18.6563119 22.30958275 21.00976602 22.2890625 23.36328125 C20.3090625 24.35328125 20.3090625 24.35328125 18.2890625 25.36328125 C17.140794 23.06674425 17.17345075 21.78014958 17.19140625 19.23046875 C17.19462891 18.42480469 17.19785156 17.61914062 17.20117188 16.7890625 C17.20955078 15.94730469 17.21792969 15.10554688 17.2265625 14.23828125 C17.23107422 13.38878906 17.23558594 12.53929687 17.24023438 11.6640625 C17.25203376 9.56377216 17.26996944 7.46351795 17.2890625 5.36328125 C14.01872322 5.1663912 10.74778309 4.98239117 7.4765625 4.80078125 C6.54779297 4.74470703 5.61902344 4.68863281 4.66210938 4.63085938 C3.3230957 4.55834961 3.3230957 4.55834961 1.95703125 4.484375 C1.13485107 4.43724365 0.3126709 4.3901123 -0.53442383 4.34155273 C-2.89380334 4.25382452 -2.89380334 4.25382452 -5.7109375 5.36328125 C-6.3709375 4.70328125 -7.0309375 4.04328125 -7.7109375 3.36328125 C-5.2924492 0.39967803 -3.77962007 -0.01353785 0 0 Z " fill="#1785F6" transform="translate(145.7109375,289.63671875)"/>
<path d="M0 0 C-0.33 1.65 -0.66 3.3 -1 5 C-4.35735137 6.11911712 -6.88205386 6.11365586 -10.41796875 6.09765625 C-11.67158203 6.09443359 -12.92519531 6.09121094 -14.21679688 6.08789062 C-15.52712891 6.07951172 -16.83746094 6.07113281 -18.1875 6.0625 C-19.52278481 6.05748317 -20.85807141 6.05292059 -22.19335938 6.04882812 C-25.46228473 6.03702695 -28.73111991 6.02056297 -32 6 C-31.34 5.67 -30.68 5.34 -30 5 C-30 3.02 -30 1.04 -30 -1 C-25.56319547 -1.22547184 -21.12562853 -1.42745053 -16.6875 -1.625 C-15.42486328 -1.68945312 -14.16222656 -1.75390625 -12.86132812 -1.8203125 C-11.65283203 -1.871875 -10.44433594 -1.9234375 -9.19921875 -1.9765625 C-8.08377686 -2.02893066 -6.96833496 -2.08129883 -5.8190918 -2.13525391 C-3 -2 -3 -2 0 0 Z " fill="#0BD1F8" transform="translate(300,226)"/>
<path d="M0 0 C1.79244141 0.01740234 1.79244141 0.01740234 3.62109375 0.03515625 C5.41740234 0.04869141 5.41740234 0.04869141 7.25 0.0625 C8.17683594 0.07410156 9.10367188 0.08570313 10.05859375 0.09765625 C9.89359375 0.84015625 9.72859375 1.58265625 9.55859375 2.34765625 C8.8610525 6.18413312 8.9970884 9.38238754 10.05859375 13.09765625 C7.91282738 13.12451563 5.7669673 13.14398713 3.62109375 13.16015625 C2.42613281 13.17175781 1.23117188 13.18335938 0 13.1953125 C-2.94140625 13.09765625 -2.94140625 13.09765625 -3.94140625 12.09765625 C-4.03991796 10.26649742 -4.07113254 8.43145692 -4.06640625 6.59765625 C-4.06898438 5.59734375 -4.0715625 4.59703125 -4.07421875 3.56640625 C-3.88057286 -0.03312905 -3.65670016 0.12140439 0 0 Z " fill="#2D89F4" transform="translate(233.94140625,344.90234375)"/>
<path d="M0 0 C8.96192395 -0.0462815 17.92380695 -0.0818478 26.8858242 -0.10362434 C31.04697253 -0.11407446 35.20803926 -0.12825592 39.36914062 -0.15087891 C43.38266429 -0.17256371 47.39610933 -0.18455937 51.40968704 -0.18975449 C52.94314436 -0.19345811 54.47659724 -0.20069011 56.01002121 -0.21146011 C58.15309801 -0.22591729 60.29584736 -0.2279804 62.43896484 -0.22705078 C64.27096939 -0.23371262 64.27096939 -0.23371262 66.13998413 -0.24050903 C69 0 69 0 71 2 C71 3.65 71 5.3 71 7 C67.7 7 64.4 7 61 7 C60.34 5.68 59.68 4.36 59 3 C57.85660156 3.01160156 56.71320313 3.02320313 55.53515625 3.03515625 C54.04427246 3.04453288 52.55338691 3.05363321 51.0625 3.0625 C49.93038086 3.07506836 49.93038086 3.07506836 48.77539062 3.08789062 C46.85005687 3.09652441 44.92464419 3.05224333 43 3 C42.505 2.505 42.505 2.505 42 2 C38.89914779 1.83958807 35.81812421 1.74036598 32.71484375 1.68359375 C31.31861534 1.6524221 31.31861534 1.6524221 29.8941803 1.62062073 C26.90869818 1.55502069 23.92312516 1.49619198 20.9375 1.4375 C18.91861024 1.3943247 16.8997298 1.35071075 14.88085938 1.30664062 C9.92066703 1.19932871 4.96038291 1.09809112 0 1 C0 0.67 0 0.34 0 0 Z " fill="#0DDCF8" transform="translate(197,212)"/>
<path d="M0 0 C1.65 0 3.3 0 5 0 C5.02505615 0.69037354 5.0501123 1.38074707 5.07592773 2.09204102 C5.1926566 5.24901409 5.31503178 8.40574457 5.4375 11.5625 C5.47681641 12.64853516 5.51613281 13.73457031 5.55664062 14.85351562 C5.77201355 20.30410746 6.08159222 25.62075441 7 31 C4.69 30.34 2.38 29.68 0 29 C0 19.43 0 9.86 0 0 Z " fill="#1886F4" transform="translate(279,289)"/>
<path d="M0 0 C3 1 3 1 4.0625 3 C4.371875 3.66 4.68125 4.32 5 5 C5.66 5.33 6.32 5.66 7 6 C8.25620381 9.40055172 8.16674351 12.84662777 8.1875 16.4375 C8.20167969 17.54996094 8.21585937 18.66242188 8.23046875 19.80859375 C7.99542416 23.06336382 7.68978258 25.20399339 6 28 C4.35 28.33 2.7 28.66 1 29 C1.33 22.73 1.66 16.46 2 10 C1.34 10 0.68 10 0 10 C0 6.7 0 3.4 0 0 Z " fill="#12F2F5" transform="translate(353,214)"/>
<path d="M0 0 C0.91765137 -0.00315216 1.83530273 -0.00630432 2.78076172 -0.009552 C4.27760498 -0.00651566 4.27760498 -0.00651566 5.8046875 -0.00341797 C6.82191895 -0.00437469 7.83915039 -0.00533142 8.88720703 -0.00631714 C11.04264386 -0.00699908 13.19808272 -0.00514382 15.35351562 -0.00097656 C18.66541121 0.00437148 21.97717117 -0.0009211 25.2890625 -0.00732422 C27.37760447 -0.00666344 29.46614635 -0.00538228 31.5546875 -0.00341797 C32.55258301 -0.0054422 33.55047852 -0.00746643 34.57861328 -0.009552 C35.49626465 -0.00639984 36.41391602 -0.00324768 37.359375 0 C38.17132324 0.00079559 38.98327148 0.00159119 39.81982422 0.00241089 C41.6796875 0.12939453 41.6796875 0.12939453 42.6796875 1.12939453 C42.8046875 3.62939453 42.8046875 3.62939453 42.6796875 6.12939453 C41.10668422 7.70239781 39.54284705 7.25664957 37.359375 7.25878906 C36.44172363 7.26194122 35.52407227 7.26509338 34.57861328 7.26834106 C33.58071777 7.26631683 32.58282227 7.2642926 31.5546875 7.26220703 C30.53745605 7.26316376 29.52022461 7.26412048 28.47216797 7.2651062 C26.31673114 7.26578814 24.16129228 7.26393288 22.00585938 7.25976562 C18.69396379 7.25441758 15.38220383 7.25971016 12.0703125 7.26611328 C9.98177053 7.2654525 7.89322865 7.26417135 5.8046875 7.26220703 C4.30784424 7.26524338 4.30784424 7.26524338 2.78076172 7.26834106 C1.86311035 7.2651889 0.94545898 7.26203674 0 7.25878906 C-0.81194824 7.25799347 -1.62389648 7.25719788 -2.46044922 7.25637817 C-4.3203125 7.12939453 -4.3203125 7.12939453 -5.3203125 6.12939453 C-5.4453125 3.62939453 -5.4453125 3.62939453 -5.3203125 1.12939453 C-3.74730922 -0.44360875 -2.18347205 0.00213949 0 0 Z M-4.3203125 1.12939453 C-4.3203125 2.44939453 -4.3203125 3.76939453 -4.3203125 5.12939453 C10.5296875 5.12939453 25.3796875 5.12939453 40.6796875 5.12939453 C40.6796875 3.80939453 40.6796875 2.48939453 40.6796875 1.12939453 C25.8296875 1.12939453 10.9796875 1.12939453 -4.3203125 1.12939453 Z " fill="#36BAE2" transform="translate(228.3203125,235.87060546875)"/>
<path d="M0 0 C1.48306641 0.02126953 1.48306641 0.02126953 2.99609375 0.04296875 C3.98738281 0.04941406 4.97867188 0.05585938 6 0.0625 C8.43359375 0.23046875 8.43359375 0.23046875 9.43359375 1.23046875 C9.50603428 3.25011074 9.51736563 5.27213999 9.49609375 7.29296875 C9.48707031 8.39769531 9.47804687 9.50242187 9.46875 10.640625 C9.45714844 11.49527344 9.44554687 12.34992188 9.43359375 13.23046875 C8.11359375 13.23046875 6.79359375 13.23046875 5.43359375 13.23046875 C5.43359375 11.91046875 5.43359375 10.59046875 5.43359375 9.23046875 C3.45359375 9.23046875 1.47359375 9.23046875 -0.56640625 9.23046875 C-0.89640625 10.88046875 -1.22640625 12.53046875 -1.56640625 14.23046875 C-2.55640625 13.90046875 -3.54640625 13.57046875 -4.56640625 13.23046875 C-4.62032618 11.43912897 -4.65916196 9.64732976 -4.69140625 7.85546875 C-4.71460938 6.85773438 -4.7378125 5.86 -4.76171875 4.83203125 C-4.49056916 1.22031865 -3.60809669 0.32401477 0 0 Z M-0.56640625 4.23046875 C-0.56640625 4.56046875 -0.56640625 4.89046875 -0.56640625 5.23046875 C1.41359375 5.23046875 3.39359375 5.23046875 5.43359375 5.23046875 C5.43359375 4.90046875 5.43359375 4.57046875 5.43359375 4.23046875 C3.45359375 4.23046875 1.47359375 4.23046875 -0.56640625 4.23046875 Z " fill="#2285F0" transform="translate(196.56640625,344.76953125)"/>
<path d="M0 0 C1.65322266 0.01740234 1.65322266 0.01740234 3.33984375 0.03515625 C4.99693359 0.04869141 4.99693359 0.04869141 6.6875 0.0625 C7.54214844 0.07410156 8.39679688 0.08570313 9.27734375 0.09765625 C10.00455267 4.86491475 10.39630417 8.36486812 9.27734375 13.09765625 C7.29824977 13.12452178 5.31905404 13.14399 3.33984375 13.16015625 C2.23769531 13.17175781 1.13554687 13.18335938 0 13.1953125 C-2.72265625 13.09765625 -2.72265625 13.09765625 -3.72265625 12.09765625 C-3.82116796 10.26649742 -3.85238254 8.43145692 -3.84765625 6.59765625 C-3.85023438 5.59734375 -3.8528125 4.59703125 -3.85546875 3.56640625 C-3.66839177 0.08897525 -3.50637665 0.12576674 0 0 Z " fill="#2D81D5" transform="translate(302.72265625,344.90234375)"/>
<path d="M0 0 C1.65322266 0.01740234 1.65322266 0.01740234 3.33984375 0.03515625 C4.99693359 0.04869141 4.99693359 0.04869141 6.6875 0.0625 C7.54214844 0.07410156 8.39679688 0.08570313 9.27734375 0.09765625 C9.60734375 1.08765625 9.93734375 2.07765625 10.27734375 3.09765625 C9.61734375 3.75765625 8.95734375 4.41765625 8.27734375 5.09765625 C8.60734375 5.42765625 8.93734375 5.75765625 9.27734375 6.09765625 C9.31827312 8.43063058 9.31976098 10.7647085 9.27734375 13.09765625 C4.98734375 13.09765625 0.69734375 13.09765625 -3.72265625 13.09765625 C-3.72265625 12.10765625 -3.72265625 11.11765625 -3.72265625 10.09765625 C-3.06265625 9.76765625 -2.40265625 9.43765625 -1.72265625 9.09765625 C-2.38265625 8.76765625 -3.04265625 8.43765625 -3.72265625 8.09765625 C-3.76507348 5.7647085 -3.76358562 3.43063058 -3.72265625 1.09765625 C-2.72265625 0.09765625 -2.72265625 0.09765625 0 0 Z " fill="#258FF4" transform="translate(252.72265625,344.90234375)"/>
<path d="M0 0 C2.14576637 -0.02685938 4.29162645 -0.04633088 6.4375 -0.0625 C7.63246094 -0.07410156 8.82742187 -0.08570313 10.05859375 -0.09765625 C13 0 13 0 14 1 C14.07226502 2.85287502 14.0838122 4.70833878 14.0625 6.5625 C14.05347656 7.57441406 14.04445312 8.58632813 14.03515625 9.62890625 C14.02355469 10.41136719 14.01195312 11.19382812 14 12 C9.49346274 13.44209192 5.79124078 14.34223148 1 14 C0 13 0 13 -0.09765625 10.05859375 C-0.08605469 8.86363281 -0.07445312 7.66867187 -0.0625 6.4375 C-0.05347656 5.23996094 -0.04445312 4.04242188 -0.03515625 2.80859375 C-0.02355469 1.88175781 -0.01195312 0.95492188 0 0 Z M4 4 C4 5.98 4 7.96 4 10 C5.98 10 7.96 10 10 10 C10 8.02 10 6.04 10 4 C8.02 4 6.04 4 4 4 Z " fill="#2B87E4" transform="translate(154,345)"/>
<path d="M0 0 C0.12375 0.639375 0.2475 1.27875 0.375 1.9375 C0.58125 2.618125 0.7875 3.29875 1 4 C1.66 4.33 2.32 4.66 3 5 C2.34 5 1.68 5 1 5 C1.33 7.31 1.66 9.62 2 12 C4.64 12.33 7.28 12.66 10 13 C9.938125 11.783125 9.87625 10.56625 9.8125 9.3125 C9.82629027 5.43053804 10.30647994 2.97216006 13 0 C15.6875 -0.3125 15.6875 -0.3125 18 0 C19.55024464 3.10048928 19.28992015 5.57894218 19 9 C17.20437595 11.75329021 15.94745078 13.52627461 13 15 C8.5868984 15.51968957 5.13840849 15.85380637 1.5 13.125 C-1.47767349 8.90662923 -1.16168701 6.09314078 -1 1 C-0.67 0.67 -0.34 0.34 0 0 Z " fill="#10ECF6" transform="translate(328,176)"/>
<path d="M0 0 C3.3125 0.1875 3.3125 0.1875 7 1 C8.75 3.3125 8.75 3.3125 10 6 C10.556875 6.70125 11.11375 7.4025 11.6875 8.125 C13 10 13 10 13 13 C13.99 13.33 14.98 13.66 16 14 C17.61121292 16.90018326 18.06645111 18.50161669 17.625 21.8125 C17.315625 22.8953125 17.315625 22.8953125 17 24 C16.34 24 15.68 24 15 24 C15.33 22.35 15.66 20.7 16 19 C15.01 18.67 14.02 18.34 13 18 C13 17.34 13 16.68 13 16 C11.948125 15.9690625 11.948125 15.9690625 10.875 15.9375 C6.58797811 14.53955808 4.71922048 11.45285181 2 8 C1.34 7.34 0.68 6.68 0 6 C0.66 6 1.32 6 2 6 C1.16666667 3.83333333 1.16666667 3.83333333 -1 3 C-0.67 2.01 -0.34 1.02 0 0 Z " fill="#22DAF1" transform="translate(306,169)"/>
<path d="M0 0 C2.95064148 -0.2208564 5.68368231 -0.28060989 8.625 -0.1875 C9.42679687 -0.17396484 10.22859375 -0.16042969 11.0546875 -0.14648438 C13.03674378 -0.11109051 15.01845551 -0.05728234 17 0 C17.66 1.65 18.32 3.3 19 5 C17 7 17 7 13.0859375 7.1953125 C11.51550649 7.18200376 9.94513779 7.15813602 8.375 7.125 C7.57320313 7.11597656 6.77140625 7.10695312 5.9453125 7.09765625 C3.96341477 7.07406223 1.98167019 7.03819065 0 7 C-0.66 5.68 -1.32 4.36 -2 3 C-1.34 2.01 -0.68 1.02 0 0 Z " fill="#21CAEE" transform="translate(273,201)"/>
<path d="M0 0 C0.79587021 0.00718552 1.59174042 0.01437103 2.41172791 0.02177429 C3.22778 0.02223251 4.04383209 0.02269073 4.88461304 0.02316284 C6.61038161 0.0261856 8.33614744 0.03407262 10.06187439 0.0464325 C12.71309498 0.06469327 15.36396661 0.06694218 18.01524353 0.06669617 C19.68907469 0.0716111 21.36290348 0.07743932 23.03672791 0.08427429 C24.23356956 0.08594353 24.23356956 0.08594353 25.45458984 0.08764648 C31.04177264 0.13619403 31.04177264 0.13619403 32.15782166 1.25224304 C32.28282166 3.75224304 32.28282166 3.75224304 32.15782166 6.25224304 C31.15782166 7.25224304 31.15782166 7.25224304 27.55601501 7.36576843 C25.95322309 7.36560929 24.35042605 7.35991368 22.74766541 7.34989929 C21.90563065 7.34848434 21.06359589 7.3470694 20.19604492 7.34561157 C17.49576831 7.33999568 14.79557338 7.32744053 12.09532166 7.31474304 C10.26915097 7.30973009 8.442979 7.30516683 6.61680603 7.30107117 C2.13044623 7.29002108 -2.35585219 7.27274583 -6.84217834 7.25224304 C-7.46717834 4.87724304 -7.46717834 4.87724304 -7.84217834 2.25224304 C-5.25928044 -0.33065486 -3.5192381 0.01468342 0 0 Z M-5.84217834 2.25224304 C-5.84217834 3.57224304 -5.84217834 4.89224304 -5.84217834 6.25224304 C6.03782166 6.25224304 17.91782166 6.25224304 30.15782166 6.25224304 C30.15782166 4.93224304 30.15782166 3.61224304 30.15782166 2.25224304 C18.27782166 2.25224304 6.39782166 2.25224304 -5.84217834 2.25224304 Z " fill="#36B7DF" transform="translate(235.84217834472656,200.7477569580078)"/>
<path d="M0 0 C0.99 0.33 1.98 0.66 3 1 C4.49718464 1.10022386 5.99833829 1.14613161 7.49882507 1.15821838 C8.88072525 1.17290161 8.88072525 1.17290161 10.2905426 1.18788147 C11.29898727 1.19363693 12.30743195 1.1993924 13.34643555 1.20532227 C14.41001282 1.21522186 15.47359009 1.22512146 16.56939697 1.23532104 C20.09181477 1.26695825 23.61424606 1.29170235 27.13671875 1.31640625 C29.5762416 1.33697385 32.01576088 1.35797027 34.45527649 1.37937927 C40.88157251 1.43461992 47.3079008 1.48402046 53.73425293 1.53222656 C60.28966143 1.582427 66.84502298 1.63812068 73.40039062 1.69335938 C86.26688671 1.80096534 99.13342288 1.9025914 112 2 C112 2.33 112 2.66 112 3 C111.17697403 3.00496522 111.17697403 3.00496522 110.33732128 3.01003075 C96.99220083 3.09121912 83.64719575 3.1834236 70.3022337 3.28752708 C63.84872792 3.33753632 57.39523889 3.38386596 50.94165039 3.421875 C44.71705022 3.4586693 38.49258858 3.50501328 32.26810646 3.55806351 C29.88981359 3.57663863 27.51149099 3.59173497 25.13315392 3.60334396 C21.80957131 3.62015301 18.48630814 3.64917528 15.1628418 3.68115234 C13.67822701 3.68439262 13.67822701 3.68439262 12.16362 3.68769836 C10.80696228 3.70444359 10.80696228 3.70444359 9.42289734 3.7215271 C8.63660792 3.72705786 7.85031851 3.73258862 7.04020214 3.73828697 C4.68920221 3.88629668 4.68920221 3.88629668 2 6 C-0.1875 5.625 -0.1875 5.625 -2 5 C-0.68 4.67 0.64 4.34 2 4 C1.34 2.68 0.68 1.36 0 0 Z " fill="#36A7DC" transform="translate(155,217)"/>
<path d="M0 0 C5.44929397 -0.36328626 5.44929397 -0.36328626 7.67578125 1.10546875 C9.62195193 3.88981323 9.39770013 6.14038141 9.375 9.5 C9.38273437 10.6446875 9.39046875 11.789375 9.3984375 12.96875 C9 16 9 16 7.76953125 17.83203125 C5.62641787 19.2465807 3.83129607 19.71294422 1.3125 20.1875 C0.50425781 20.34605469 -0.30398438 20.50460937 -1.13671875 20.66796875 C-2.05904297 20.83232422 -2.05904297 20.83232422 -3 21 C-3 20.01 -3 19.02 -3 18 C0.3 17.67 3.6 17.34 7 17 C7 15.68 7 14.36 7 13 C-0.92 13 -8.84 13 -17 13 C-17 11.02 -17 9.04 -17 7 C-16.67 7 -16.34 7 -16 7 C-16 8.65 -16 10.3 -16 12 C-10.06 12 -4.12 12 2 12 C2 10.35 2 8.7 2 7 C2.66 7 3.32 7 4 7 C4.66 7.66 5.32 8.32 6 9 C6.66 9 7.32 9 8 9 C7.67 7.68 7.34 6.36 7 5 C5.02 5 3.04 5 1 5 C0.67 3.35 0.34 1.7 0 0 Z " fill="#3283DC" transform="translate(371,289)"/>
<path d="M0 0 C0.33 0.99 0.66 1.98 1 3 C0.01 3.495 0.01 3.495 -1 4 C-1.16628906 5.16595703 -1.16628906 5.16595703 -1.3359375 6.35546875 C-2 9 -2 9 -4.0390625 10.80078125 C-9.30082562 13.87676664 -12.86851131 15.79975939 -19 15 C-19.66 13.02 -20.32 11.04 -21 9 C-19.948125 9.04125 -18.89625 9.0825 -17.8125 9.125 C-14.23403909 9.00767341 -12.09689175 8.73061598 -9 7 C-8.67 6.01 -8.34 5.02 -8 4 C-2.62857143 0 -2.62857143 0 0 0 Z " fill="#10EBF5" transform="translate(350,251)"/>
<path d="M0 0 C3.875 1.875 3.875 1.875 5 3 C5.28150942 7.28491465 5.23182832 11.58194096 5.25 15.875 C5.270625 17.08542969 5.29125 18.29585938 5.3125 19.54296875 C5.31765625 20.70183594 5.3228125 21.86070312 5.328125 23.0546875 C5.3374707 24.12187012 5.34681641 25.18905273 5.35644531 26.28857422 C5 29 5 29 3.66699219 30.87158203 C2 32 2 32 -1 32 C-1.495 29.525 -1.495 29.525 -2 27 C-7.94 26.67 -13.88 26.34 -20 26 C-20 25.67 -20 25.34 -20 25 C-14.06 25 -8.12 25 -2 25 C-2 19.06 -2 13.12 -2 7 C-7.94 7 -13.88 7 -20 7 C-20 6.67 -20 6.34 -20 6 C-13.73 6 -7.46 6 -1 6 C-0.96261719 7.42054688 -0.92523438 8.84109375 -0.88671875 10.3046875 C-0.82107438 12.16148542 -0.75462652 14.01825507 -0.6875 15.875 C-0.66494141 16.81214844 -0.64238281 17.74929688 -0.61914062 18.71484375 C-0.5659668 20.05869141 -0.5659668 20.05869141 -0.51171875 21.4296875 C-0.48553467 22.25710449 -0.45935059 23.08452148 -0.43237305 23.93701172 C-0.16903363 26.39327932 -0.16903363 26.39327932 3 28 C3.08714316 24.08347368 3.14043985 20.16719689 3.1875 16.25 C3.21263672 15.13882812 3.23777344 14.02765625 3.26367188 12.8828125 C3.27333984 11.81289063 3.28300781 10.74296875 3.29296875 9.640625 C3.3086792 8.65610352 3.32438965 7.67158203 3.34057617 6.65722656 C2.94965182 3.60717591 2.03157056 2.25886277 0 0 Z " fill="#3686DB" transform="translate(340,289)"/>
<path d="M0 0 C1.32 0.99 2.64 1.98 4 3 C3.34 4.32 2.68 5.64 2 7 C-1.17148809 7.07735337 -4.10907101 6.98321984 -7.25 6.5 C-11.85900445 5.88546607 -16.35876653 5.91595352 -21 6 C-21 6.99 -21 7.98 -21 9 C-22.98 9 -24.96 9 -27 9 C-27 8.01 -27 7.02 -27 6 C-25.02 5.67 -23.04 5.34 -21 5 C-21 4.34 -21 3.68 -21 3 C-14.03220597 1.67280114 -7.07011089 1.91174619 0 2 C0 1.34 0 0.68 0 0 Z " fill="#0ACFF9" transform="translate(290,160)"/>
<path d="M0 0 C2.10388569 -0.05402274 4.20816714 -0.09280256 6.3125 -0.125 C8.07013672 -0.15980469 8.07013672 -0.15980469 9.86328125 -0.1953125 C13 0 13 0 16 2 C15.34 2 14.68 2 14 2 C14 2.99 14 3.98 14 5 C15.98 4.67 17.96 4.34 20 4 C20.33 5.65 20.66 7.3 21 9 C20.01 9.33 19.02 9.66 18 10 C17.67 9.01 17.34 8.02 17 7 C15.44539063 6.92652344 15.44539063 6.92652344 13.859375 6.8515625 C12.48955792 6.77650403 11.11976752 6.70095753 9.75 6.625 C9.06808594 6.5940625 8.38617188 6.563125 7.68359375 6.53125 C4.01260962 6.31740626 1.13748384 5.98922945 -2 4 C-1.34 2.68 -0.68 1.36 0 0 Z " fill="#1786F6" transform="translate(358,289)"/>
<path d="M0 0 C1.65322266 0.01740234 1.65322266 0.01740234 3.33984375 0.03515625 C4.99693359 0.04869141 4.99693359 0.04869141 6.6875 0.0625 C7.54214844 0.07410156 8.39679688 0.08570313 9.27734375 0.09765625 C8.94734375 1.41765625 8.61734375 2.73765625 8.27734375 4.09765625 C5.30734375 4.09765625 2.33734375 4.09765625 -0.72265625 4.09765625 C-0.72265625 6.07765625 -0.72265625 8.05765625 -0.72265625 10.09765625 C2.57734375 10.09765625 5.87734375 10.09765625 9.27734375 10.09765625 C9.27734375 11.08765625 9.27734375 12.07765625 9.27734375 13.09765625 C4.98734375 13.09765625 0.69734375 13.09765625 -3.72265625 13.09765625 C-3.8203125 3.8203125 -3.8203125 3.8203125 -3.72265625 1.09765625 C-2.72265625 0.09765625 -2.72265625 0.09765625 0 0 Z " fill="#3483D4" transform="translate(321.72265625,344.90234375)"/>
<path d="M0 0 C0.99 0 1.98 0 3 0 C3 1.65 3 3.3 3 5 C5.31 5 7.62 5 10 5 C10 3.35 10 1.7 10 0 C10.99 0 11.98 0 13 0 C13 4.29 13 8.58 13 13 C12.01 13 11.02 13 10 13 C10 11.68 10 10.36 10 9 C7.69 9 5.38 9 3 9 C3 10.32 3 11.64 3 13 C2.01 13 1.02 13 0 13 C0 8.71 0 4.42 0 0 Z " fill="#2A88E3" transform="translate(337,345)"/>
<path d="M0 0 C3.5 -0.3125 3.5 -0.3125 7 0 C7.66 0.66 8.32 1.32 9 2 C11.29280328 2.33771476 11.29280328 2.33771476 13.9375 2.34375 C14.91460937 2.37339844 15.89171875 2.40304688 16.8984375 2.43359375 C17.92195313 2.45550781 18.94546875 2.47742188 20 2.5 C22.02104122 2.54327166 24.04192556 2.59493969 26.0625 2.65625 C26.96097656 2.67494141 27.85945313 2.69363281 28.78515625 2.71289062 C31 3 31 3 33 5 C32.67 6.65 32.34 8.3 32 10 C24.08 10.33 16.16 10.66 8 11 C8 10.34 8 9.68 8 9 C15.59 9 23.18 9 31 9 C30.505 7.515 30.505 7.515 30 6 C22.41 5.67 14.82 5.34 7 5 C6.67 4.01 6.34 3.02 6 2 C3.36 2.33 0.72 2.66 -2 3 C-1.34 2.01 -0.68 1.02 0 0 Z " fill="#35A5DE" transform="translate(189,198)"/>
<path d="M0 0 C3.04012276 0.34416484 6.00220078 0.73225933 8.96112061 1.52622986 C11.12931922 2.03004964 13.08549611 2.15842913 15.30957031 2.20532227 C16.5704245 2.2352401 16.5704245 2.2352401 17.85675049 2.26576233 C18.75480408 2.28247482 19.65285767 2.29918732 20.578125 2.31640625 C21.5046991 2.33718735 22.43127319 2.35796844 23.38592529 2.37937927 C26.34054272 2.44466961 29.29524768 2.50366431 32.25 2.5625 C34.25521732 2.60570473 36.26042585 2.64931965 38.265625 2.69335938 C43.17699404 2.80032999 48.08845097 2.90165518 53 3 C53 3.33 53 3.66 53 4 C46.05827612 4.02529373 39.11656406 4.04284304 32.17480469 4.05493164 C29.81184444 4.05996959 27.44888732 4.06680008 25.0859375 4.07543945 C21.69530465 4.08752854 18.30471291 4.09323359 14.9140625 4.09765625 C13.85256989 4.10281754 12.79107727 4.10797882 11.69741821 4.11329651 C10.71655243 4.11337204 9.73568665 4.11344757 8.72509766 4.11352539 C7.85905914 4.115746 6.99302063 4.11796661 6.10073853 4.12025452 C4 4 4 4 2 3 C2.33 3.66 2.66 4.32 3 5 C5.02463255 5.65213292 5.02463255 5.65213292 7 6 C7 6.66 7 7.32 7 8 C10.63 8 14.26 8 18 8 C18 8.33 18 8.66 18 9 C10.90370975 9.31461385 5.31715405 9.44572039 -1 6 C-1.042721 4.33388095 -1.04063832 2.66617115 -1 1 C-0.67 0.67 -0.34 0.34 0 0 Z " fill="#2EADE7" transform="translate(202,259)"/>
<path d="M0 0 C3.63 0.33 7.26 0.66 11 1 C11 1.66 11 2.32 11 3 C13.31 3.33 15.62 3.66 18 4 C18.33 5.32 18.66 6.64 19 8 C14.13958891 8.95302178 11.48021445 9.0160965 7 7 C4.67402489 6.6186926 2.34087842 6.27539746 0 6 C0 4.02 0 2.04 0 0 Z " fill="#0DE8F6" transform="translate(323,194)"/>
<path d="M0 0 C3.0625 0.3125 3.0625 0.3125 5 1.4375 C6.0625 3.3125 6.0625 3.3125 5.875 6.375 C5.0625 9.3125 5.0625 9.3125 3.0625 11.3125 C0.125 11.6875 0.125 11.6875 -2.9375 11.3125 C-4.875 9.625 -4.875 9.625 -5.9375 7.3125 C-5.61764525 2.8345335 -4.76027546 0.50641228 0 0 Z " fill="#10E7F6" transform="translate(332.9375,146.6875)"/>
<path d="M0 0 C5.97740866 5.63584246 10.17663601 10.87774221 12 19 C16.455 19.99 16.455 19.99 21 21 C21 21.33 21 21.66 21 22 C16.71 21.67 12.42 21.34 8 21 C8.33 22.65 8.66 24.3 9 26 C6 25 6 25 4.61328125 22.56640625 C4.18402344 21.57511719 3.75476563 20.58382812 3.3125 19.5625 C2.87550781 18.57378906 2.43851562 17.58507812 1.98828125 16.56640625 C1 14 1 14 1 12 C4 12 4 12 5.75 13.1875 C7 15 7 15 6.6875 17.6875 C6.460625 18.450625 6.23375 19.21375 6 20 C6.66 19.67 7.32 19.34 8 19 C7.51421457 15.87709365 7.0013988 13.00419641 6 10 C5.34 9.67 4.68 9.34 4 9 C2.9296875 7.44140625 2.9296875 7.44140625 1.875 5.5625 C1.52179688 4.94503906 1.16859375 4.32757813 0.8046875 3.69140625 C0 2 0 2 0 0 Z " fill="#31E3F1" transform="translate(315,173)"/>
<path d="M0 0 C0.99 0 1.98 0 3 0 C3 1.32 3 2.64 3 4 C3.66 4 4.32 4 5 4 C5.33 4.66 5.66 5.32 6 6 C8.01669827 7.13350534 8.01669827 7.13350534 10 8 C7.3125 8.8125 7.3125 8.8125 4 9 C1.0625 6.8125 1.0625 6.8125 -1 4 C-0.8125 1.6875 -0.8125 1.6875 0 0 Z M0 7 C2 8 2 8 3 10 C3.07092842 12.2072923 3.08415025 14.41667452 3.0625 16.625 C3.05347656 17.81351562 3.04445313 19.00203125 3.03515625 20.2265625 C3.02355469 21.14179688 3.01195312 22.05703125 3 23 C1.68 23.33 0.36 23.66 -1 24 C-1.02684679 21.35409986 -1.04676357 18.70846904 -1.0625 16.0625 C-1.07087891 15.30775391 -1.07925781 14.55300781 -1.08789062 13.77539062 C-1.09652441 11.85005687 -1.05224333 9.92464419 -1 8 C-0.67 7.67 -0.34 7.34 0 7 Z " fill="#1689F8" transform="translate(350,298)"/>
<path d="M0 0 C4.62 0 9.24 0 14 0 C13.67 1.32 13.34 2.64 13 4 C11.68 4 10.36 4 9 4 C9 6.97 9 9.94 9 13 C7.68 13 6.36 13 5 13 C5 10.03 5 7.06 5 4 C3.35 3.67 1.7 3.34 0 3 C0 2.01 0 1.02 0 0 Z " fill="#397ECE" transform="translate(173,345)"/>
<path d="M0 0 C6.0546875 -0.1953125 6.0546875 -0.1953125 8 0 C8.66 0.66 9.32 1.32 10 2 C12.10820797 1.6814823 12.10820797 1.6814823 14 1 C16.05685131 5.35568513 16.05685131 5.35568513 15.8125 8.125 C14.88269161 10.27071167 13.75385898 11.47490524 12 13 C11.34 12.67 10.68 12.34 10 12 C10 10.02 10 8.04 10 6 C6.7 5.67 3.4 5.34 0 5 C0 3.35 0 1.7 0 0 Z " fill="#1885F7" transform="translate(222,290)"/>
<path d="M0 0 C0 0.99 0 1.98 0 3 C-36.63 2.505 -36.63 2.505 -74 2 C-74 1.67 -74 1.34 -74 1 C-65.38518915 0.86899468 -56.77036991 0.73856146 -48.15553951 0.60884857 C-44.15487688 0.54859312 -40.15421736 0.48814428 -36.15356445 0.42724609 C-32.28916156 0.36842915 -28.42475117 0.31012987 -24.56033516 0.25218201 C-23.08963304 0.23003892 -21.61893367 0.20771268 -20.14823723 0.18519592 C-18.08052135 0.15357065 -16.01279647 0.12261029 -13.94506836 0.09179688 C-12.77036484 0.07403198 -11.59566132 0.05626709 -10.38536072 0.03796387 C-6.92327607 -0.00086039 -3.4622719 -0.00647898 0 0 Z " fill="#2ED3F2" transform="translate(329,261)"/>
<path d="M0 0 C0.82693359 0.00451172 1.65386719 0.00902344 2.50585938 0.01367188 C4.52477146 0.02534189 6.54364574 0.04327282 8.5625 0.0625 C7.5725 0.5575 7.5725 0.5575 6.5625 1.0625 C6.8925 2.0525 7.2225 3.0425 7.5625 4.0625 C-0.6875 4.0625 -8.9375 4.0625 -17.4375 4.0625 C-17.1075 3.0725 -16.7775 2.0825 -16.4375 1.0625 C-10.91041389 0.12029874 -5.59991648 -0.05866149 0 0 Z " fill="#1596F6" transform="translate(172.4375,236.9375)"/>
<path d="M0 0 C3.82825694 0.0274427 3.82825694 0.0274427 6.125 1.75 C6.62 2.4925 6.62 2.4925 7.125 3.25 C5.375 7.125 5.375 7.125 3.125 8.25 C-0.92642119 8.50860135 -2.41837669 8.55441554 -5.875 6.25 C-4.80889121 0.31025105 -4.80889121 0.31025105 0 0 Z " fill="#1CDAF1" transform="translate(308.875,223.75)"/>
<path d="M0 0 C2 1.25 2 1.25 3 3 C2.8125 5.125 2.8125 5.125 2 7 C-1.04983996 8.52491998 -3.6423369 8.23562548 -7 8 C-9 6.75 -9 6.75 -10 5 C-9.8125 2.875 -9.8125 2.875 -9 1 C-5.95016004 -0.52491998 -3.3576631 -0.23562548 0 0 Z " fill="#2DC9E8" transform="translate(300,247)"/>
<path d="M0 0 C1.32 0 2.64 0 4 0 C4 3.3 4 6.6 4 10 C7.3 10 10.6 10 14 10 C14 10.99 14 11.98 14 13 C11.85423363 13.02685938 9.70837355 13.04633088 7.5625 13.0625 C6.36753906 13.07410156 5.17257813 13.08570313 3.94140625 13.09765625 C1 13 1 13 0 12 C-0.07244053 9.98035801 -0.08377188 7.95832876 -0.0625 5.9375 C-0.05347656 4.83277344 -0.04445312 3.72804688 -0.03515625 2.58984375 C-0.02355469 1.73519531 -0.01195312 0.88054687 0 0 Z " fill="#317ED2" transform="translate(211,345)"/>
<path d="M0 0 C4.29 0 8.58 0 13 0 C13 1.32 13 2.64 13 4 C11.35 4 9.7 4 8 4 C8 6.97 8 9.94 8 13 C7.01 13 6.02 13 5 13 C5 10.03 5 7.06 5 4 C3.35 3.67 1.7 3.34 0 3 C0 2.01 0 1.02 0 0 Z " fill="#3486D7" transform="translate(280,345)"/>
<path d="M0 0 C6.6 0 13.2 0 20 0 C20.33 1.32 20.66 2.64 21 4 C18.06195004 4.08086376 15.12611925 4.1404283 12.1875 4.1875 C10.93743164 4.22520508 10.93743164 4.22520508 9.66210938 4.26367188 C8.45844727 4.27817383 8.45844727 4.27817383 7.23046875 4.29296875 C6.12288208 4.31653442 6.12288208 4.31653442 4.99291992 4.34057617 C2.46229801 3.90811047 1.58031406 2.97500226 0 1 C0 0.67 0 0.34 0 0 Z " fill="#0FACF9" transform="translate(199,203)"/>
<path d="M0 0 C5.94 0 11.88 0 18 0 C18 0.33 18 0.66 18 1 C17.030625 1.28875 16.06125 1.5775 15.0625 1.875 C11.89335797 2.64214682 11.89335797 2.64214682 11 5 C11.99 5.33 12.98 5.66 14 6 C9.05 6 4.1 6 -1 6 C-0.34 4.68 0.32 3.36 1 2 C0.67 1.34 0.34 0.68 0 0 Z " fill="#12AEF6" transform="translate(209,225)"/>
<path d="M0 0 C3 0.5 3 0.5 4.875 3 C5.24625 3.825 5.6175 4.65 6 5.5 C5.01 6.985 5.01 6.985 4 8.5 C2.0546875 8.79296875 2.0546875 8.79296875 -0.125 8.6875 C-1.40375 8.625625 -2.6825 8.56375 -4 8.5 C-4.66 6.85 -5.32 5.2 -6 3.5 C-4.1142144 0.9856192 -3.16490841 0.52748474 0 0 Z " fill="#3BCAE6" transform="translate(276,211.5)"/>
<path d="M0 0 C-0.33 1.65 -0.66 3.3 -1 5 C-3.88211302 5.96070434 -5.69850044 6.10581883 -8.6875 6.0625 C-9.89986328 6.04896484 -9.89986328 6.04896484 -11.13671875 6.03515625 C-12.05904297 6.01775391 -12.05904297 6.01775391 -13 6 C-12.67 4.02 -12.34 2.04 -12 0 C-10.56666979 -0.39063507 -9.12807321 -0.76198474 -7.6875 -1.125 C-6.88699219 -1.33382812 -6.08648437 -1.54265625 -5.26171875 -1.7578125 C-3 -2 -3 -2 0 0 Z " fill="#12D9F4" transform="translate(300,226)"/>
<path d="M0 0 C6.75 1.625 6.75 1.625 9 5 C9.99 5.33 10.98 5.66 12 6 C13.36363208 7.97946592 14.69418644 9.9819245 16 12 C17.29682374 13.36886951 18.61823134 14.7169291 20 16 C15.71378543 15.52264896 13.80058635 13.04013996 10.9375 10 C7.49289313 6.1914902 7.49289313 6.1914902 3 4 C3 7.96 3 11.92 3 16 C2.34 16 1.68 16 1 16 C0.83191581 13.89594609 0.66558052 11.79175242 0.5 9.6875 C0.4071875 8.51574219 0.314375 7.34398437 0.21875 6.13671875 C0.07635011 4.094806 0 2.0468721 0 0 Z " fill="#3285DE" transform="translate(352,305)"/>
<path d="M0 0 C7.26 0.33 14.52 0.66 22 1 C16.375 5.5 16.375 5.5 10.6875 5.25 C9.08455078 5.19585937 9.08455078 5.19585937 7.44921875 5.140625 C6.64097656 5.09421875 5.83273438 5.0478125 5 5 C5 4.34 5 3.68 5 3 C3.35 2.67 1.7 2.34 0 2 C0 1.34 0 0.68 0 0 Z " fill="#0FAEF9" transform="translate(204,262)"/>
<path d="M0 0 C0.7734375 0.7115625 0.7734375 0.7115625 1.5625 1.4375 C4.66782675 3.42809407 7.36632504 3.65060818 11 4 C12.04449911 7.13349732 11.93423645 7.98968256 11 11 C4.9453125 11.1953125 4.9453125 11.1953125 3 11 C2.34 10.34 1.68 9.68 1 9 C1.66 9 2.32 9 3 9 C2.44271087 5.65626525 1.64826111 2.96687001 0 0 Z " fill="#218AEA" transform="translate(369,310)"/>
<path d="M0 0 C2.64 0.33 5.28 0.66 8 1 C8 2.32 8 3.64 8 5 C6.02 5 4.04 5 2 5 C1.67 6.32 1.34 7.64 1 9 C-0.98 8.34 -2.96 7.68 -5 7 C-4.67 5.35 -4.34 3.7 -4 2 C-3.01 2 -2.02 2 -1 2 C-0.67 1.34 -0.34 0.68 0 0 Z " fill="#129BF9" transform="translate(176,248)"/>
<path d="M0 0 C1.79244141 0.01740234 1.79244141 0.01740234 3.62109375 0.03515625 C5.41740234 0.04869141 5.41740234 0.04869141 7.25 0.0625 C8.17683594 0.07410156 9.10367188 0.08570313 10.05859375 0.09765625 C9.72859375 1.41765625 9.39859375 2.73765625 9.05859375 4.09765625 C5.42859375 4.09765625 1.79859375 4.09765625 -1.94140625 4.09765625 C-2.27140625 6.73765625 -2.60140625 9.37765625 -2.94140625 12.09765625 C-3.27140625 12.09765625 -3.60140625 12.09765625 -3.94140625 12.09765625 C-3.96827904 10.28523573 -3.9877434 8.47270392 -4.00390625 6.66015625 C-4.01550781 5.65082031 -4.02710938 4.64148438 -4.0390625 3.6015625 C-3.89749299 -0.02827964 -3.67773118 0.12210263 0 0 Z " fill="#2B80E5" transform="translate(233.94140625,344.90234375)"/>
<path d="M0 0 C1.32 0.66 2.64 1.32 4 2 C4 2.99 4 3.98 4 5 C4.99 5.33 5.98 5.66 7 6 C8.61121292 8.90018326 9.06645111 10.50161669 8.625 13.8125 C8.41875 14.534375 8.2125 15.25625 8 16 C7.34 16 6.68 16 6 16 C6.33 14.35 6.66 12.7 7 11 C6.01 10.67 5.02 10.34 4 10 C4 9.34 4 8.68 4 8 C3.01 8 2.02 8 1 8 C0.34 5.69 -0.32 3.38 -1 1 C-0.67 0.67 -0.34 0.34 0 0 Z " fill="#06E3F9" transform="translate(315,177)"/>
<path d="M0 0 C0.33 0 0.66 0 1 0 C1.4375 2.125 1.4375 2.125 1 5 C-1.083122 7.33462754 -3.38711444 9.27975181 -6 11 C-6.66 11 -7.32 11 -8 11 C-8.061875 11.61875 -8.12375 12.2375 -8.1875 12.875 C-9 15 -9 15 -11.1875 16.25 C-14.24032669 17.06408712 -16.85417035 17.14631766 -20 17 C-17 15 -17 15 -14.765625 13.80859375 C-8.86743439 10.5938967 -5.13633615 7.26028166 -1.27734375 1.7578125 C-0.85582031 1.17773438 -0.43429687 0.59765625 0 0 Z " fill="#25E5ED" transform="translate(350,244)"/>
<path d="M0 0 C0 0.66 0 1.32 0 2 C-10.395 2.495 -10.395 2.495 -21 3 C-21 3.66 -21 4.32 -21 5 C-23.31 5 -25.62 5 -28 5 C-19.41570481 -0.72286346 -9.94373358 -0.35797441 0 0 Z " fill="#22CAEA" transform="translate(290,160)"/>
<path d="M0 0 C0.99 0 1.98 0 3 0 C3.22786458 2.01822917 3.45572917 4.03645833 3.68359375 6.0546875 C3.91292961 8.07404316 3.91292961 8.07404316 5 10 C2.69 10.33 0.38 10.66 -2 11 C-2.33 8.36 -2.66 5.72 -3 3 C-2.01 2.67 -1.02 2.34 0 2 C0 1.34 0 0.68 0 0 Z " fill="#188BF6" transform="translate(144,233)"/>
<path d="M0 0 C0.99 0 1.98 0 3 0 C3 1.65 3 3.3 3 5 C4.65 5 6.3 5 8 5 C7.01 5.66 6.02 6.32 5 7 C6.32 7.66 7.64 8.32 9 9 C7.02 9 5.04 9 3 9 C3 10.32 3 11.64 3 13 C2.01 13 1.02 13 0 13 C0 8.71 0 4.42 0 0 Z " fill="#3486DA" transform="translate(337,345)"/>
<path d="M0 0 C0.495 0.144375 0.99 0.28875 1.5 0.4375 C4.97752922 1.21994407 8.45955123 1.58694764 12 2 C12.33 2.99 12.66 3.98 13 5 C11.26043342 6.73956658 8.8063378 6.37190386 6.4375 6.5625 C4.91962891 6.68818359 4.91962891 6.68818359 3.37109375 6.81640625 C2.58863281 6.87699219 1.80617188 6.93757813 1 7 C0.67 4.69 0.34 2.38 0 0 Z " fill="#2286F2" transform="translate(300,348)"/>
<path d="M0 0 C0.12375 0.639375 0.2475 1.27875 0.375 1.9375 C0.58125 2.618125 0.7875 3.29875 1 4 C1.66 4.33 2.32 4.66 3 5 C2.34 5 1.68 5 1 5 C1.33 7.31 1.66 9.62 2 12 C2.83144531 12 3.66289062 12 4.51953125 12 C8.6796875 12 12.83984375 12 17 12 C14.36701229 14.74746544 12.17866359 15.28598997 8.5 15.4375 C5.17768719 15.33367772 4.24282016 15.18211512 1.5 13.125 C-1.47767349 8.90662923 -1.16168701 6.09314078 -1 1 C-0.67 0.67 -0.34 0.34 0 0 Z " fill="#2CE1EE" transform="translate(328,176)"/>
<path d="M0 0 C4.62 0 9.24 0 14 0 C13.34 1.32 12.68 2.64 12 4 C8.04 4 4.08 4 0 4 C0 2.68 0 1.36 0 0 Z " fill="#0DB0F8" transform="translate(210,249)"/>
<path d="M0 0 C0.33 0.66 0.66 1.32 1 2 C1.99 2.66 2.98 3.32 4 4 C3.34 4 2.68 4 2 4 C2.33 5.65 2.66 7.3 3 9 C5.31 9 7.62 9 10 9 C8.875 10.5625 8.875 10.5625 7 12 C3.54604843 11.92804268 1.68845426 11.59962145 -0.9375 9.3125 C-2.37196808 6.19042242 -1.87074094 4.26527853 -1 1 C-0.67 0.67 -0.34 0.34 0 0 Z " fill="#2B96E4" transform="translate(164,223)"/>
<path d="M0 0 C4.29 0 8.58 0 13 0 C13.33 0.66 13.66 1.32 14 2 C12.68 2 11.36 2 10 2 C10 2.66 10 3.32 10 4 C8.02 4 6.04 4 4 4 C4 3.34 4 2.68 4 2 C3.01 2 2.02 2 1 2 C1 5.63 1 9.26 1 13 C0.67 13 0.34 13 0 13 C0 8.71 0 4.42 0 0 Z " fill="#3A84D1" transform="translate(154,345)"/>
<path d="M0 0 C1.65322266 0.01740234 1.65322266 0.01740234 3.33984375 0.03515625 C4.99693359 0.04869141 4.99693359 0.04869141 6.6875 0.0625 C7.54214844 0.07410156 8.39679688 0.08570313 9.27734375 0.09765625 C9.60734375 1.08765625 9.93734375 2.07765625 10.27734375 3.09765625 C9.27734375 4.09765625 9.27734375 4.09765625 7.2109375 4.1953125 C6.38722656 4.18371094 5.56351562 4.17210937 4.71484375 4.16015625 C3.88855469 4.15113281 3.06226563 4.14210938 2.2109375 4.1328125 C1.57285156 4.12121094 0.93476563 4.10960937 0.27734375 4.09765625 C0.27734375 3.43765625 0.27734375 2.77765625 0.27734375 2.09765625 C-0.71265625 2.09765625 -1.70265625 2.09765625 -2.72265625 2.09765625 C-2.72265625 3.74765625 -2.72265625 5.39765625 -2.72265625 7.09765625 C-3.05265625 7.09765625 -3.38265625 7.09765625 -3.72265625 7.09765625 C-3.76519981 5.09810879 -3.76346408 3.09723989 -3.72265625 1.09765625 C-2.72265625 0.09765625 -2.72265625 0.09765625 0 0 Z " fill="#3780D0" transform="translate(252.72265625,344.90234375)"/>
<path d="M0 0 C0 0.33 0 0.66 0 1 C-1.59328125 1.27263672 -1.59328125 1.27263672 -3.21875 1.55078125 C-10.42230747 2.81974441 -17.25934586 4.05096381 -24 7 C-24 6.34 -24 5.68 -24 5 C-23.34 5 -22.68 5 -22 5 C-22 4.34 -22 3.68 -22 3 C-20.35 3 -18.7 3 -17 3 C-17 2.01 -17 1.02 -17 0 C-11.0885256 -0.77313045 -5.8685408 -1.14819277 0 0 Z " fill="#2AC5EA" transform="translate(286,166)"/>
<path d="M0 0 C0.99 0.33 1.98 0.66 3 1 C1.02 4.96 -0.96 8.92 -3 13 C-4.65 12.67 -6.3 12.34 -8 12 C-8 10.02 -8 8.04 -8 6 C-7.01 6.495 -7.01 6.495 -6 7 C-6.33 7.99 -6.66 8.98 -7 10 C-5.68 10 -4.36 10 -3 10 C-3 8.02 -3 6.04 -3 4 C-2.01 4 -1.02 4 0 4 C0 2.68 0 1.36 0 0 Z " fill="#2AB6E3" transform="translate(247,183)"/>
<path d="M0 0 C0.99 0.33 1.98 0.66 3 1 C2.67 1.99 2.34 2.98 2 4 C5.63 3.01 9.26 2.02 13 1 C13 1.66 13 2.32 13 3 C13.66 3.33 14.32 3.66 15 4 C15 3.34 15 2.68 15 2 C15.66 2 16.32 2 17 2 C17.33 2.99 17.66 3.98 18 5 C12.06 5 6.12 5 0 5 C-0.33 3.68 -0.66 2.36 -1 1 C-0.67 0.67 -0.34 0.34 0 0 Z " fill="#1495F5" transform="translate(158,214)"/>
<path d="M0 0 C3 0 3 0 4.75 1.1875 C6 3 6 3 5.6875 5.6875 C5.460625 6.450625 5.23375 7.21375 5 8 C5.61875 7.79375 6.2375 7.5875 6.875 7.375 C7.57625 7.25125 8.2775 7.1275 9 7 C9.66 7.66 10.32 8.32 11 9 C9.68 9 8.36 9 7 9 C7.33 10.65 7.66 12.3 8 14 C5 13 5 13 3.61328125 10.56640625 C2.96939453 9.07947266 2.96939453 9.07947266 2.3125 7.5625 C1.87550781 6.57378906 1.43851562 5.58507812 0.98828125 4.56640625 C0 2 0 2 0 0 Z " fill="#20DFF1" transform="translate(316,185)"/>
<path d="M0 0 C3.96 0 7.92 0 12 0 C11.67 1.32 11.34 2.64 11 4 C8.03 4 5.06 4 2 4 C1.67 4.99 1.34 5.98 1 7 C1.33 5.02 1.66 3.04 2 1 C1.34 0.67 0.68 0.34 0 0 Z " fill="#3B80CC" transform="translate(319,345)"/>
<path d="M0 0 C0.78375 0.04125 1.5675 0.0825 2.375 0.125 C1.75625 0.393125 1.1375 0.66125 0.5 0.9375 C-1.9245233 2.08056848 -1.9245233 2.08056848 -3.625 5.125 C-2.635 5.455 -1.645 5.785 -0.625 6.125 C-0.955 7.115 -1.285 8.105 -1.625 9.125 C0.685 8.465 2.995 7.805 5.375 7.125 C4.715 8.445 4.055 9.765 3.375 11.125 C0.5625 11.375 0.5625 11.375 -2.625 11.125 C-4.5625 9.4375 -4.5625 9.4375 -5.625 7.125 C-5.32665864 2.94822093 -4.61279836 0.21965706 0 0 Z " fill="#33DDE8" transform="translate(332.625,146.875)"/>
<path d="M0 0 C3.96 0 7.92 0 12 0 C12 1.32 12 2.64 12 4 C3.42857143 4.14285714 3.42857143 4.14285714 0 3 C0 2.01 0 1.02 0 0 Z " fill="#3684D0" transform="translate(300,345)"/>
<path d="M0 0 C0.99 0.33 1.98 0.66 3 1 C3.625 3.375 3.625 3.375 4 6 C3.34 6.66 2.68 7.32 2 8 C-0.625 7.625 -0.625 7.625 -3 7 C-3.33 6.01 -3.66 5.02 -4 4 C-2.68 2.68 -1.36 1.36 0 0 Z " fill="#24D9EC" transform="translate(322,162)"/>
<path d="M0 0 C0.99773437 0.02320313 1.99546875 0.04640625 3.0234375 0.0703125 C4.52777344 0.09738281 4.52777344 0.09738281 6.0625 0.125 C6.83335937 0.14820313 7.60421875 0.17140625 8.3984375 0.1953125 C7.4084375 0.5253125 6.4184375 0.8553125 5.3984375 1.1953125 C5.3984375 2.1853125 5.3984375 3.1753125 5.3984375 4.1953125 C3.7484375 4.1953125 2.0984375 4.1953125 0.3984375 4.1953125 C1.0584375 3.5353125 1.7184375 2.8753125 2.3984375 2.1953125 C0.7484375 2.5253125 -0.9015625 2.8553125 -2.6015625 3.1953125 C-2.9315625 6.1653125 -3.2615625 9.1353125 -3.6015625 12.1953125 C-2.9415625 12.1953125 -2.2815625 12.1953125 -1.6015625 12.1953125 C-1.2715625 11.2053125 -0.9415625 10.2153125 -0.6015625 9.1953125 C-0.9315625 10.8453125 -1.2615625 12.4953125 -1.6015625 14.1953125 C-2.5915625 13.8653125 -3.5815625 13.5353125 -4.6015625 13.1953125 C-4.65548243 11.40397272 -4.69431821 9.61217351 -4.7265625 7.8203125 C-4.74976563 6.82257813 -4.77296875 5.82484375 -4.796875 4.796875 C-4.52386888 1.16043347 -3.63644153 0.27300612 0 0 Z " fill="#3081D8" transform="translate(196.6015625,344.8046875)"/>
<path d="M0 0 C0.33 0.66 0.66 1.32 1 2 C3.02463255 2.65213292 3.02463255 2.65213292 5 3 C5 4.98 5 6.96 5 9 C11.27 9 17.54 9 24 9 C24 9.33 24 9.66 24 10 C14.595 10.495 14.595 10.495 5 11 C4.01 9.02 3.02 7.04 2 5 C1.34 4.67 0.68 4.34 0 4 C0 2.68 0 1.36 0 0 Z " fill="#1E84EB" transform="translate(208,293)"/>
<path d="M0 0 C0.66 0.33 1.32 0.66 2 1 C2.4140625 3.06640625 2.4140625 3.06640625 2.625 5.5625 C2.69976562 6.38878906 2.77453125 7.21507812 2.8515625 8.06640625 C2.90054687 8.70449219 2.94953125 9.34257812 3 10 C1.02 10.66 -0.96 11.32 -3 12 C-2.14285714 3.42857143 -2.14285714 3.42857143 0 0 Z " fill="#04F6F9" transform="translate(357,231)"/>
<path d="M0 0 C5.44041451 -0.3626943 5.44041451 -0.3626943 7.6875 1.09375 C9.64499078 3.93677233 9.28856821 6.28487016 9.1875 9.6875 C9.16042969 10.86699219 9.13335937 12.04648437 9.10546875 13.26171875 C9.07066406 14.16535156 9.03585937 15.06898438 9 16 C8.67 16 8.34 16 8 16 C7.67 12.37 7.34 8.74 7 5 C5.02 5 3.04 5 1 5 C0.67 3.35 0.34 1.7 0 0 Z " fill="#2A89E9" transform="translate(371,289)"/>
<path d="M0 0 C2.64 0 5.28 0 8 0 C8 2.31 8 4.62 8 7 C4.04 7 0.08 7 -4 7 C-4 6.67 -4 6.34 -4 6 C-2.02 6 -0.04 6 2 6 C2.33 5.01 2.66 4.02 3 3 C3.33 2.67 3.66 2.34 4 2 C2.68 1.34 1.36 0.68 0 0 Z " fill="#2786E5" transform="translate(196,289)"/>
<path d="M0 0 C1.32 0 2.64 0 4 0 C4 3.96 4 7.92 4 12 C3.34 11.67 2.68 11.34 2 11 C2 9.35 2 7.7 2 6 C1.4225 6.226875 0.845 6.45375 0.25 6.6875 C-2 7 -2 7 -4.25 5.5625 C-4.8275 5.046875 -5.405 4.53125 -6 4 C-4.02 4 -2.04 4 0 4 C0 2.68 0 1.36 0 0 Z " fill="#227EE4" transform="translate(202,346)"/>
<path d="M0 0 C1.875 0.671875 1.875 0.671875 4 1.75 C4.70125 2.09546875 5.4025 2.4409375 6.125 2.796875 C8 4 8 4 10 7 C9.01 7 8.02 7 7 7 C7 8.32 7 9.64 7 11 C6.67 11.66 6.34 12.32 6 13 C4.68 11.68 3.36 10.36 2 9 C3.32 8.67 4.64 8.34 6 8 C5.67 7.01 5.34 6.02 5 5 C1.48809191 3.77030122 1.48809191 3.77030122 -2 3 C-2 2.34 -2 1.68 -2 1 C-1.34 0.67 -0.68 0.34 0 0 Z " fill="#22E6ED" transform="translate(336,194)"/>
<path d="M0 0 C0.99 0 1.98 0 3 0 C3 3.3 3 6.6 3 10 C3.99 10.33 4.98 10.66 6 11 C4 12 4 12 0 12 C0 8.04 0 4.08 0 0 Z " fill="#1C82ED" transform="translate(155,347)"/>
<path d="M0 0 C2.31 0 4.62 0 7 0 C6.2575 0.680625 6.2575 0.680625 5.5 1.375 C3.77390663 2.87635519 3.77390663 2.87635519 4 5 C6.64 5.33 9.28 5.66 12 6 C12 6.33 12 6.66 12 7 C8.04 7 4.08 7 0 7 C0 4.69 0 2.38 0 0 Z " fill="#2A85E0" transform="translate(242,289)"/>
<path d="M0 0 C1.4540625 0.0309375 1.4540625 0.0309375 2.9375 0.0625 C3.2675 1.7125 3.5975 3.3625 3.9375 5.0625 C1.6275 5.0625 -0.6825 5.0625 -3.0625 5.0625 C-3.625 3.125 -3.625 3.125 -4.0625 1.0625 C-3.0625 0.0625 -3.0625 0.0625 0 0 Z " fill="#0DCCF6" transform="translate(276.0625,213.9375)"/>
<path d="M0 0 C0 1.65 0 3.3 0 5 C0.66 5.33 1.32 5.66 2 6 C1.67 6.66 1.34 7.32 1 8 C-1.375 7.75 -1.375 7.75 -4 7 C-5.3125 4.9375 -5.3125 4.9375 -6 3 C-5.34 3 -4.68 3 -4 3 C-4 2.34 -4 1.68 -4 1 C-1 0 -1 0 0 0 Z " fill="#08EFF9" transform="translate(347,200)"/>
<path d="M0 0 C0.99 0 1.98 0 3 0 C3.33 1.65 3.66 3.3 4 5 C4.99 5 5.98 5 7 5 C7 6.65 7 8.3 7 10 C4.69 9.01 2.38 8.02 0 7 C0.66 6.67 1.32 6.34 2 6 C1.16666667 3.83333333 1.16666667 3.83333333 -1 3 C-0.67 2.01 -0.34 1.02 0 0 Z " fill="#0BDFF9" transform="translate(306,169)"/>
<path d="M0 0 C1.4370809 -0.05422947 2.87475462 -0.09289723 4.3125 -0.125 C5.11300781 -0.14820313 5.91351563 -0.17140625 6.73828125 -0.1953125 C9 0 9 0 12 2 C12.33 1.34 12.66 0.68 13 0 C13 0.99 13 1.98 13 3 C8.71 3 4.42 3 0 3 C0 2.01 0 1.02 0 0 Z " fill="#3281D6" transform="translate(249,355)"/>
<path d="M0 0 C0.99 0 1.98 0 3 0 C3 0.99 3 1.98 3 3 C5.64 3 8.28 3 11 3 C11 3.99 11 4.98 11 6 C10.13375 5.814375 9.2675 5.62875 8.375 5.4375 C4.94847372 4.99332067 2.35787629 5.28045508 -1 6 C-0.67 4.02 -0.34 2.04 0 0 Z " fill="#1F81E5" transform="translate(250,347)"/>
<path d="M0 0 C0.33 0.66 0.66 1.32 1 2 C2.88764903 2.68472665 2.88764903 2.68472665 5.0625 3.125 C5.79597656 3.29257812 6.52945313 3.46015625 7.28515625 3.6328125 C7.85105469 3.75398438 8.41695312 3.87515625 9 4 C9 4.66 9 5.32 9 6 C6.69 6 4.38 6 2 6 C2 6.66 2 7.32 2 8 C1.34 8 0.68 8 0 8 C0 5.36 0 2.72 0 0 Z " fill="#1882F6" transform="translate(231,347)"/>
<path d="M0 0 C4.455 0.99 4.455 0.99 9 2 C8.34 3.32 7.68 4.64 7 6 C5.35 6 3.7 6 2 6 C1.34 4.02 0.68 2.04 0 0 Z " fill="#06ECFA" transform="translate(329,260)"/>
<path d="M0 0 C1.65 0.33 3.3 0.66 5 1 C5 1.99 5 2.98 5 4 C2.03 4.66 -0.94 5.32 -4 6 C-3.67 5.01 -3.34 4.02 -3 3 C-2.34 3 -1.68 3 -1 3 C-0.67 2.01 -0.34 1.02 0 0 Z " fill="#0EC1FA" transform="translate(253,171)"/>
<path d="M0 0 C0.66 0 1.32 0 2 0 C2 0.66 2 1.32 2 2 C3.32 2.33 4.64 2.66 6 3 C6 3.66 6 4.32 6 5 C4.02 5.33 2.04 5.66 0 6 C-0.38218767 4.34385343 -0.71395102 2.67542976 -1 1 C-0.67 0.67 -0.34 0.34 0 0 Z " fill="#1790F5" transform="translate(151,216)"/>
<path d="M0 0 C2.97 0 5.94 0 9 0 C9.33 0.99 9.66 1.98 10 3 C6.7 3 3.4 3 0 3 C0 2.01 0 1.02 0 0 Z " fill="#2C7CD3" transform="translate(234,355)"/>
<path d="M0 0 C1.98 0 3.96 0 6 0 C6.33 1.32 6.66 2.64 7 4 C4.69 4 2.38 4 0 4 C0 2.68 0 1.36 0 0 Z " fill="#07D1F6" transform="translate(278,249)"/>
<path d="M0 0 C0.66 0 1.32 0 2 0 C2.66 2.31 3.32 4.62 4 7 C6.31 7 8.62 7 11 7 C10.67 7.66 10.34 8.32 10 9 C3.6217765 9.36103152 3.6217765 9.36103152 1.0625 7.875 C-0.44484863 5.214973 -0.19986253 2.99793795 0 0 Z " fill="#349DD9" transform="translate(186,202)"/>
<path d="M0 0 C4.29 0 8.58 0 13 0 C12.67 1.32 12.34 2.64 12 4 C9.36 4 6.72 4 4 4 C4 3.67 4 3.34 4 3 C5.98 2.67 7.96 2.34 10 2 C6.7 1.67 3.4 1.34 0 1 C0 0.67 0 0.34 0 0 Z " fill="#4578BE" transform="translate(231,345)"/>
<path d="M0 0 C2.64 0 5.28 0 8 0 C6.8125 2 6.8125 2 5 4 C2.3125 4.25 2.3125 4.25 0 4 C0 2.68 0 1.36 0 0 Z " fill="#10B5F2" transform="translate(224,237)"/>
<path d="M0 0 C3.96 0 7.92 0 12 0 C12 0.33 12 0.66 12 1 C8.37 1.66 4.74 2.32 1 3 C0.67 4.32 0.34 5.64 0 7 C-1.125 2.25 -1.125 2.25 0 0 Z " fill="#328BE1" transform="translate(242,314)"/>
<path d="M0 0 C0 0.99 0 1.98 0 3 C-2.97 3 -5.94 3 -9 3 C-9 2.34 -9 1.68 -9 1 C-6.04335481 -0.4783226 -3.25770263 -0.06032783 0 0 Z " fill="#1EE2F1" transform="translate(329,261)"/>
<path d="M0 0 C1.32 0 2.64 0 4 0 C3.67 3.3 3.34 6.6 3 10 C2.34 10 1.68 10 1 10 C0.67 6.7 0.34 3.4 0 0 Z " fill="#1C83F5" transform="translate(178,347)"/>
<path d="M0 0 C1.65 0 3.3 0 5 0 C4.3125 1.9375 4.3125 1.9375 3 4 C0.375 4.75 0.375 4.75 -2 5 C-2 4.34 -2 3.68 -2 3 C-1.34 3 -0.68 3 0 3 C0 2.01 0 1.02 0 0 Z " fill="#2785E2" transform="translate(164,316)"/>
<path d="M0 0 C0.66 0 1.32 0 2 0 C2.66 0.99 3.32 1.98 4 3 C4.33 3 4.66 3 5 3 C5 4.98 5 6.96 5 9 C4.67 7.68 4.34 6.36 4 5 C0.9254644 5.7763932 0.9254644 5.7763932 -1 8 C-0.67 5.36 -0.34 2.72 0 0 Z " fill="#1A82EF" transform="translate(349,293)"/>
<path d="M0 0 C-0.33 0.66 -0.66 1.32 -1 2 C-2.65 2 -4.3 2 -6 2 C-6 2.66 -6 3.32 -6 4 C-8.31 4 -10.62 4 -13 4 C-8.62615587 1.08410391 -5.29457529 -0.30254716 0 0 Z " fill="#2DC2E5" transform="translate(275,161)"/>
<path d="M0 0 C3 3 3 3 3.07421875 5.04296875 C2.71614583 7.02864583 2.35807292 9.01432292 2 11 C1.34 11 0.68 11 0 11 C0 7.37 0 3.74 0 0 Z " fill="#2D81D5" transform="translate(347,310)"/>
<path d="M0 0 C2.31 0.33 4.62 0.66 7 1 C7 2.98 7 4.96 7 7 C6.731875 6.360625 6.46375 5.72125 6.1875 5.0625 C5.11332248 2.66868314 5.11332248 2.66868314 2 2 C1.67 2.99 1.34 3.98 1 5 C0.67 3.35 0.34 1.7 0 0 Z " fill="#2885E4" transform="translate(231,289)"/>
<path d="M0 0 C2 3 2 3 2 7 C2.598125 7.12375 3.19625 7.2475 3.8125 7.375 C6 8 6 8 9 10 C5.625 9.6875 5.625 9.6875 2 9 C-0.29013653 5.5647952 -0.17842973 4.014669 0 0 Z " fill="#3297E1" transform="translate(169,248)"/>
<path d="M0 0 C0.66 0.309375 1.32 0.61875 2 0.9375 C5.70476015 2.24960255 9.09263991 2.60264135 13 3 C13 3.33 13 3.66 13 4 C11.20841511 4.02696365 9.41671527 4.04637917 7.625 4.0625 C6.62726563 4.07410156 5.62953125 4.08570313 4.6015625 4.09765625 C2 4 2 4 0 3 C0 2.01 0 1.02 0 0 Z " fill="#3290E3" transform="translate(147,233)"/>
<path d="M0 0 C3.63 0 7.26 0 11 0 C10.01 0.33 9.02 0.66 8 1 C8 1.99 8 2.98 8 4 C6.35 4 4.7 4 3 4 C3.66 3.34 4.32 2.68 5 2 C3.35 1.67 1.7 1.34 0 1 C0 0.67 0 0.34 0 0 Z " fill="#3C7FC6" transform="translate(194,345)"/>
<path d="M0 0 C1.32 0 2.64 0 4 0 C4 1.32 4 2.64 4 4 C1.69 4 -0.62 4 -3 4 C-2.34 3.67 -1.68 3.34 -1 3 C-0.67 2.01 -0.34 1.02 0 0 Z " fill="#0CD7FA" transform="translate(297,249)"/>
<path d="M0 0 C2.475 0.495 2.475 0.495 5 1 C5.33 2.32 5.66 3.64 6 5 C4.35 4.67 2.7 4.34 1 4 C0.67 2.68 0.34 1.36 0 0 Z " fill="#1AE2F2" transform="translate(309,170)"/>
<path d="M0 0 C2.31 0.66 4.62 1.32 7 2 C4.75 4.0625 4.75 4.0625 2 6 C-0.3125 5.75 -0.3125 5.75 -2 5 C-0.68 4.67 0.64 4.34 2 4 C1.34 2.68 0.68 1.36 0 0 Z " fill="#2A91E2" transform="translate(155,217)"/>
<path d="M0 0 C1.65 0 3.3 0 5 0 C3.02 2.31 1.04 4.62 -1 7 C-1 4.37886292 -0.68707555 2.49064888 0 0 Z " fill="#28BAE3" transform="translate(253,175)"/>
<path d="M0 0 C1.14814997 2.29629994 1.30769809 4.07698086 1.5625 6.625 C1.64628906 7.44226563 1.73007812 8.25953125 1.81640625 9.1015625 C1.87699219 9.72804688 1.93757813 10.35453125 2 11 C1.01 11 0.02 11 -1 11 C-1.02688151 9.35425434 -1.04634123 7.70838587 -1.0625 6.0625 C-1.07410156 5.14597656 -1.08570313 4.22945313 -1.09765625 3.28515625 C-1 1 -1 1 0 0 Z " fill="#2485EE" transform="translate(320,346)"/>
<path d="M0 0 C2.64 0 5.28 0 8 0 C8 1.32 8 2.64 8 4 C7.01 3.67 6.02 3.34 5 3 C5 2.34 5 1.68 5 1 C3.35 1 1.7 1 0 1 C0 0.67 0 0.34 0 0 Z " fill="#267EDB" transform="translate(235,350)"/>
<path d="M0 0 C0.66 0 1.32 0 2 0 C2.6875 2.8125 2.6875 2.8125 3 6 C2.01 6.99 1.02 7.98 0 9 C0 6.03 0 3.06 0 0 Z " fill="#2E83DB" transform="translate(347,289)"/>
<path d="M0 0 C2.475 0.99 2.475 0.99 5 2 C4.67 3.32 4.34 4.64 4 6 C3.01 6 2.02 6 1 6 C0.67 4.02 0.34 2.04 0 0 Z " fill="#2484E3" transform="translate(338,315)"/>
<path d="M0 0 C0.99 0 1.98 0 3 0 C3.33 1.98 3.66 3.96 4 6 C3.01 6 2.02 6 1 6 C0.67 4.02 0.34 2.04 0 0 Z " fill="#2289EE" transform="translate(376,315)"/>
<path d="M0 0 C2.64 0 5.28 0 8 0 C6.875 1.5625 6.875 1.5625 5 3 C1.8125 2.6875 1.8125 2.6875 -1 2 C-0.67 1.34 -0.34 0.68 0 0 Z " fill="#2887E8" transform="translate(210,289)"/>
<path d="M0 0 C2.97 0 5.94 0 9 0 C8.01 1.485 8.01 1.485 7 3 C4.69 2.34 2.38 1.68 0 1 C0 0.67 0 0.34 0 0 Z " fill="#169FF3" transform="translate(184,213)"/>
<path d="M0 0 C2.35171131 0.59861742 4.6859378 1.26924352 7 2 C7.33 2.66 7.66 3.32 8 4 C6.35 4 4.7 4 3 4 C3 3.34 3 2.68 3 2 C2.01 2 1.02 2 0 2 C0 1.34 0 0.68 0 0 Z " fill="#26D6EA" transform="translate(298,163)"/>
</svg>
