<?xml version="1.0" encoding="UTF-8"?>
<svg version="1.1" xmlns="http://www.w3.org/2000/svg" width="500" height="500">
<path d="M0 0 C165 0 330 0 500 0 C500 165 500 330 500 500 C335 500 170 500 0 500 C0 335 0 170 0 0 Z " fill="#FEFEFE" transform="translate(0,0)"/>
<path d="M0 0 C0.81597656 0.45761719 1.63195312 0.91523438 2.47265625 1.38671875 C10.29644776 6.15413762 15.13322777 11.71823677 18.5625 20.1875 C20.37112167 24.06728519 21.3263272 25.65320785 25.171875 27.6328125 C27.60980357 28.42278506 30.06108564 29.17261839 32.5234375 29.8828125 C41.71317835 32.83592023 47.24649562 39.92290719 52 48 C52.36222656 48.61230469 52.72445312 49.22460938 53.09765625 49.85546875 C56.92933838 57.92873389 56.13942906 69.66866538 53.4375 77.9375 C49.45184937 87.20031871 42.99153503 94.35377172 34 99 C26.64903739 101.82817695 19.88970548 102.43281698 12.06787109 102.38818359 C10.91858627 102.39344055 9.76930145 102.39869751 8.58518982 102.40411377 C4.81446443 102.41723755 1.04416662 102.40860357 -2.7265625 102.3984375 C-5.36111532 102.40046014 -7.99566759 102.40337316 -10.63021851 102.40713501 C-16.13926772 102.41257376 -21.64819579 102.40544906 -27.15722656 102.39111328 C-33.50916693 102.37477404 -39.86081854 102.38009192 -46.21275198 102.3965925 C-52.34877615 102.41188855 -58.48467314 102.41021724 -64.62070847 102.4014473 C-67.22097184 102.39944996 -69.82124262 102.40188812 -72.42149734 102.40888596 C-76.05674895 102.41652452 -79.69144948 102.40486232 -83.32666016 102.38818359 C-84.929058 102.39729263 -84.929058 102.39729263 -86.56382751 102.40658569 C-92.69521807 102.35460457 -97.50615414 101.84463836 -103 99 C-103.83330727 97.01714134 -103.83330727 97.01714134 -104 95 C-103.01 94.01 -103.01 94.01 -102 93 C-100.23741055 93.23253155 -100.23741055 93.23253155 -98.08872986 93.85783386 C-92.55022741 95.23178908 -87.2645343 95.28836658 -81.58032227 95.2746582 C-79.91995438 95.2823246 -79.91995438 95.2823246 -78.2260437 95.29014587 C-74.58944194 95.30397595 -70.95303108 95.30309017 -67.31640625 95.30078125 C-64.77489655 95.30467149 -62.23338749 95.30900684 -59.69187927 95.31376648 C-54.37358217 95.32121433 -49.05535434 95.32108704 -43.73706055 95.31567383 C-37.61183662 95.30963466 -31.48684243 95.32195206 -25.36165768 95.3432439 C-19.44084548 95.36305932 -13.52010377 95.36602486 -7.59925652 95.36250877 C-5.09274697 95.36302062 -2.58623364 95.36823249 -0.07974434 95.37832069 C3.43065761 95.39071757 6.9405336 95.38387366 10.45092773 95.37231445 C11.4761705 95.37995819 12.50141327 95.38760193 13.557724 95.39547729 C24.46048847 95.3165038 33.15233335 92.78562976 41 85 C46.86869087 77.58541007 48.59586956 70.04927942 48.4375 60.67578125 C47.49555672 52.76177568 43.83712937 46.30316892 38 40.9375 C33.13741187 37.15752583 28.89902015 35.10271887 22.8125 34.125 C18.24029433 33.26515237 18.24029433 33.26515237 16.1875 31 C15.795625 30.01 15.40375 29.02 15 28 C9.6776996 16.45530429 3.63233124 8.33876908 -8.5 3.6875 C-19.49224836 0.3169107 -30.73334578 0.71776722 -41 6 C-50.65482372 11.36063114 -56.53295505 19.01484069 -61 29 C-62.65 28.67 -64.3 28.34 -66 28 C-65.81928457 19.86780578 -61.26527934 13.63363781 -55.95703125 7.7265625 C-41.28570852 -6.22321977 -17.84021243 -10.54826913 0 0 Z " fill="#10D9FA" transform="translate(305,166)"/>
<path d="M0 0 C6.80625 -0.12375 6.80625 -0.12375 13.75 -0.25 C15.17538086 -0.28641602 16.60076172 -0.32283203 18.06933594 -0.36035156 C19.75978027 -0.37533691 19.75978027 -0.37533691 21.484375 -0.390625 C22.63647461 -0.41157227 23.78857422 -0.43251953 24.97558594 -0.45410156 C28 0 28 0 30.37402344 1.68066406 C32.35469312 4.50594363 32.51511792 6.07078114 32.53125 9.5 C32.53898437 11.0778125 32.53898437 11.0778125 32.546875 12.6875 C32.53140625 13.780625 32.5159375 14.87375 32.5 16 C32.51546875 17.093125 32.5309375 18.18625 32.546875 19.3125 C32.54171875 20.364375 32.5365625 21.41625 32.53125 22.5 C32.52673828 23.4590625 32.52222656 24.418125 32.51757812 25.40625 C31.83366934 28.8335363 30.84346355 29.98700092 28 32 C24.97558594 32.45410156 24.97558594 32.45410156 21.484375 32.390625 C20.35741211 32.38063477 19.23044922 32.37064453 18.06933594 32.36035156 C15.93126465 32.30572754 15.93126465 32.30572754 13.75 32.25 C9.2125 32.1675 4.675 32.085 0 32 C0 21.44 0 10.88 0 0 Z " fill="#1987F9" transform="translate(137,289)"/>
<path d="M0 0 C1.14533203 -0.01998047 2.29066406 -0.03996094 3.47070312 -0.06054688 C4.57220703 -0.05990234 5.67371094 -0.05925781 6.80859375 -0.05859375 C8.31957642 -0.06137329 8.31957642 -0.06137329 9.86108398 -0.06420898 C13.33378069 0.58074282 14.49546936 1.60064744 16.5625 4.4375 C17.08007812 6.92358398 17.08007812 6.92358398 17.09375 9.68359375 C17.10148437 11.18696289 17.10148437 11.18696289 17.109375 12.72070312 C17.09390625 13.76162109 17.0784375 14.80253906 17.0625 15.875 C17.07796875 16.91205078 17.0934375 17.94910156 17.109375 19.01757812 C17.08758416 23.25862072 16.86573924 26.66086532 15.31640625 30.62890625 C10.60331477 33.72417058 5.49286854 33.073508 0 32.9375 C-1.14919922 32.94007813 -2.29839844 32.94265625 -3.48242188 32.9453125 C-11.79242297 32.84794869 -11.79242297 32.84794869 -14.26391602 31.27539062 C-15.93498133 28.65841961 -15.82602025 26.65290298 -15.8359375 23.5625 C-15.83980469 22.41265625 -15.84367187 21.2628125 -15.84765625 20.078125 C-15.83605469 18.87671875 -15.82445312 17.6753125 -15.8125 16.4375 C-15.82410156 15.23609375 -15.83570313 14.0346875 -15.84765625 12.796875 C-15.84378906 11.64703125 -15.83992188 10.4971875 -15.8359375 9.3125 C-15.83255371 8.25804687 -15.82916992 7.20359375 -15.82568359 6.1171875 C-15.4375 3.4375 -15.4375 3.4375 -14.26391602 1.59741211 C-10.19930614 -0.98392214 -4.65578284 -0.02872328 0 0 Z " fill="#258DF9" transform="translate(328.4375,288.5625)"/>
<path d="M0 0 C6.125 -0.4375 6.125 -0.4375 9 1 C9 1.66 9 2.32 9 3 C49.92 3 90.84 3 133 3 C133.33 4.65 133.66 6.3 134 8 C132.35445874 9.64554126 130.45375543 9.13516168 128.1856842 9.14476013 C126.62292503 9.15510788 126.62292503 9.15510788 125.02859497 9.16566467 C123.29946365 9.16958473 123.29946365 9.16958473 121.53540039 9.17358398 C120.3290242 9.180271 119.12264801 9.18695801 117.87971497 9.19384766 C115.25016468 9.20793669 112.62067058 9.22025658 109.99110603 9.22979546 C105.83602311 9.24521113 101.68101719 9.26915941 97.52598572 9.29469299 C85.70886085 9.36599557 73.89169185 9.42572138 62.07446289 9.47680664 C55.55212069 9.50507797 49.02985507 9.54044146 42.5075931 9.58346039 C38.37436695 9.61028928 34.24122748 9.62815957 30.10793126 9.63949764 C26.93656751 9.65073886 23.76529761 9.67486848 20.59399414 9.69702148 C18.86789917 9.6979052 18.86789917 9.6979052 17.10693359 9.69880676 C16.06227432 9.70852509 15.01761505 9.71824341 13.94129944 9.72825623 C13.0300232 9.73248816 12.11874697 9.7367201 11.1798563 9.74108028 C8.79059044 9.79689742 8.79059044 9.79689742 7 12 C3.89652746 12.33015665 1.84218824 12.50531294 -0.875 10.875 C-2.51151479 8.14747535 -2.32502803 6.12026907 -2 3 C-1.34 2.01 -0.68 1.02 0 0 Z " fill="#0EB5F9" transform="translate(165,222)"/>
<path d="M0 0 C6.80625 -0.12375 6.80625 -0.12375 13.75 -0.25 C15.17538086 -0.28641602 16.60076172 -0.32283203 18.06933594 -0.36035156 C19.75978027 -0.37533691 19.75978027 -0.37533691 21.484375 -0.390625 C22.63647461 -0.41157227 23.78857422 -0.43251953 24.97558594 -0.45410156 C28.64197989 0.09639026 29.78532318 1.08301125 32 4 C32.94542773 8.72713867 32.91173751 13.40445935 30.5 17.625 C26.97345533 19.56459957 24.00941492 19.73270567 20 20 C22.88406243 23.40843742 24.3708265 24.86591384 28.8125 25.8125 C29.864375 25.874375 30.91625 25.93625 32 26 C32 27.98 32 29.96 32 32 C28.41474464 32.85665394 25.57975359 32.94375322 22 32 C18.42503028 29.38312216 15.58885192 26.02216583 12.6640625 22.72265625 C10.13531413 19.66280912 10.13531413 19.66280912 6 19 C6 23.29 6 27.58 6 32 C4.02 32 2.04 32 0 32 C0 21.44 0 10.88 0 0 Z " fill="#1A87F9" transform="translate(348,289)"/>
<path d="M0 0 C0.33 0.33 0.66 0.66 1 1 C2.37396864 1.10313358 3.75314916 1.1379346 5.13096619 1.14476013 C6.02135086 1.15165863 6.91173553 1.15855713 7.82910156 1.16566467 C8.81354248 1.16827805 9.7979834 1.17089142 10.81225586 1.17358398 C11.84306778 1.180271 12.8738797 1.18695801 13.93592834 1.19384766 C16.1823958 1.20793461 18.42887789 1.21981693 20.67536736 1.22979546 C24.22557253 1.24614315 27.77566909 1.26937742 31.32582092 1.29469299 C41.42248162 1.36564695 51.51918666 1.42567393 61.6159668 1.47680664 C67.78334975 1.50852373 73.95060852 1.54978079 80.11789131 1.59700203 C82.47468401 1.61306652 84.83150536 1.62536738 87.18833733 1.63390923 C90.47847034 1.64600583 93.76830915 1.6701314 97.05834961 1.69702148 C98.0407663 1.69761063 99.02318298 1.69819977 100.03536987 1.69880676 C101.37517662 1.71338425 101.37517662 1.71338425 102.74205017 1.72825623 C103.90985724 1.73460413 103.90985724 1.73460413 105.10125637 1.74108028 C107 2 107 2 109 4 C108.67 5.32 108.34 6.64 108 8 C72.69 8 37.38 8 1 8 C1 8.66 1 9.32 1 10 C-1.79870027 11.39935013 -3.90498792 11.25265405 -7 11 C-8.875 9.875 -8.875 9.875 -10 8 C-10.39310741 4.85514075 -10.47555213 2.86718329 -8.9375 0.0625 C-5.84787273 -1.63181173 -3.32782582 -0.73951685 0 0 Z " fill="#11AAF9" transform="translate(159,211)"/>
<path d="M0 0 C3.0625 0.25 3.0625 0.25 6.0625 2.25 C8.08093403 2.55389479 8.08093403 2.55389479 10.32008362 2.51501465 C11.18797516 2.52328781 12.0558667 2.53156097 12.95005798 2.54008484 C13.89925613 2.53910294 14.84845428 2.53812103 15.82641602 2.53710938 C16.82825928 2.54394241 17.83010254 2.55077545 18.86230469 2.55781555 C21.03942681 2.5714147 23.21658099 2.58046081 25.3937397 2.58552551 C28.83494921 2.59379456 32.27589079 2.61427984 35.71702576 2.63806152 C44.26234316 2.69455679 52.80772546 2.72973152 61.35314941 2.76568604 C68.57378257 2.79686976 75.79428577 2.83601222 83.01481438 2.88594055 C86.41285271 2.90608076 89.81079184 2.91434254 93.20887756 2.92224121 C95.28191495 2.93520743 97.35494897 2.94872682 99.42797852 2.96289062 C100.3792009 2.96190872 101.33042328 2.96092682 102.31047058 2.95991516 C103.1755423 2.96818832 104.04061401 2.97646149 104.93190002 2.98498535 C105.6857174 2.98791847 106.43953478 2.99085159 107.21619511 2.9938736 C109.0625 3.25 109.0625 3.25 111.0625 5.25 C110.6875 7.375 110.6875 7.375 110.0625 9.25 C108.11478195 9.26213028 108.11478195 9.26213028 106.12771606 9.27450562 C93.91384925 9.35186034 81.7000953 9.43957226 69.48637581 9.53752708 C63.2065974 9.58755565 56.92683635 9.63388497 50.64697266 9.671875 C44.59095457 9.70864507 38.53507952 9.75498214 32.4791832 9.80806351 C30.16425958 9.8266516 27.84930526 9.84174307 25.53433609 9.85334396 C22.30154907 9.87013104 19.06909281 9.89914749 15.83642578 9.93115234 C14.87113953 9.93331253 13.90585327 9.93547272 12.91131592 9.93769836 C12.03349457 9.94886185 11.15567322 9.96002533 10.25125122 9.9715271 C9.48616304 9.97705786 8.72107487 9.98258862 7.9328022 9.98828697 C5.81820872 10.09276285 5.81820872 10.09276285 4.0625 12.25 C-1.91466895 12.793379 -1.91466895 12.793379 -4.9375 11.1875 C-6.55397822 8.05557344 -5.72415296 5.57814714 -4.9375 2.25 C-2.9375 0.25 -2.9375 0.25 0 0 Z " fill="#10B4F9" transform="translate(174.9375,244.75)"/>
<path d="M0 0 C1.051875 -0.00515625 2.10375 -0.0103125 3.1875 -0.015625 C4.280625 -0.00015625 5.37375 0.0153125 6.5 0.03125 C8.1396875 0.00804687 8.1396875 0.00804687 9.8125 -0.015625 C10.864375 -0.01046875 11.91625 -0.0053125 13 0 C14.43859375 0.00676758 14.43859375 0.00676758 15.90625 0.01367188 C19.3335363 0.69758066 20.48700092 1.68778645 22.5 4.53125 C22.95410156 7.55566406 22.95410156 7.55566406 22.890625 11.046875 C22.87773437 12.29726563 22.86484375 13.54765625 22.8515625 14.8359375 C22.81804687 16.13789063 22.78453125 17.43984375 22.75 18.78125 C22.73195312 20.09867187 22.71390625 21.41609375 22.6953125 22.7734375 C22.64816271 26.02677308 22.58236044 29.27864625 22.5 32.53125 C20.52 32.53125 18.54 32.53125 16.5 32.53125 C16.5 28.24125 16.5 23.95125 16.5 19.53125 C9.9 19.53125 3.3 19.53125 -3.5 19.53125 C-3.5 23.82125 -3.5 28.11125 -3.5 32.53125 C-5.48 32.53125 -7.46 32.53125 -9.5 32.53125 C-9.61605098 27.94812916 -9.68720362 23.36538551 -9.75 18.78125 C-9.78351563 17.47929687 -9.81703125 16.17734375 -9.8515625 14.8359375 C-9.86445313 13.58554687 -9.87734375 12.33515625 -9.890625 11.046875 C-9.91157227 9.89477539 -9.93251953 8.74267578 -9.95410156 7.55566406 C-9.5 4.53125 -9.5 4.53125 -7.81933594 2.15722656 C-4.99405637 0.17655688 -3.42921886 0.01613208 0 0 Z " fill="#1886F9" transform="translate(216.5,288.46875)"/>
<path d="M0 0 C0.33 0.33 0.66 0.66 1 1 C3.08026133 1.11860175 5.16452381 1.16742587 7.24804688 1.18945312 C8.22609032 1.20189308 8.22609032 1.20189308 9.22389221 1.21458435 C10.64366698 1.23201801 12.06347105 1.24717568 13.48329163 1.26036072 C15.72685405 1.28132573 17.97026898 1.3083526 20.21374512 1.33703613 C24.97577395 1.396826 29.73787054 1.44894601 34.5 1.5 C40.01602416 1.55913637 45.53197546 1.6213569 51.04786682 1.69187927 C53.26426886 1.71854569 55.48067785 1.73930469 57.69714355 1.7598877 C59.04875033 1.7764843 60.40035378 1.79335558 61.75195312 1.81054688 C62.93696411 1.82307495 64.1219751 1.83560303 65.34289551 1.84851074 C68 2 68 2 69 3 C69.125 5.5 69.125 5.5 69 8 C67.16789085 9.83210915 64.24295582 9.15374291 61.78369141 9.17358398 C61.13487503 9.180271 60.48605865 9.18695801 59.81758118 9.19384766 C58.40435309 9.20792752 56.99110186 9.21981215 55.5778389 9.22979546 C53.34212119 9.24616287 51.10657459 9.26939909 48.87094116 9.29469299 C42.51300541 9.36558323 36.15499901 9.4255899 29.796875 9.47680664 C25.91176181 9.50858529 22.02684333 9.54986042 18.14188766 9.59700203 C16.65954465 9.6130321 15.17715671 9.62534903 13.69475174 9.63390923 C11.62133253 9.64605304 9.54837146 9.67019873 7.47509766 9.69702148 C6.29452789 9.70732895 5.11395813 9.71763641 3.89761353 9.72825623 C0.80528994 9.7870498 0.80528994 9.7870498 -2 12 C-5.0625 11.8125 -5.0625 11.8125 -8 11 C-10.31282587 7.53076119 -10.42478586 6.07794425 -10 2 C-7.64880534 -2.28747261 -4.22461819 -0.93880404 0 0 Z " fill="#28A4F9" transform="translate(150,234)"/>
<path d="M0 0 C10.56 0 21.12 0 32 0 C32 1.98 32 3.96 32 6 C27.71 6 23.42 6 19 6 C19 12.6 19 19.2 19 26 C23.29 26 27.58 26 32 26 C32 27.98 32 29.96 32 32 C21.44 32 10.88 32 0 32 C0 29.69 0 27.38 0 25 C4.29 25 8.58 25 13 25 C13 19.06 13 13.12 13 7 C8.71 7 4.42 7 0 7 C0 4.69 0 2.38 0 0 Z " fill="#208BF9" transform="translate(242,289)"/>
<path d="M0 0 C6.6 0 13.2 0 20 0 C20 6.6 20 13.2 20 20 C13.4 20 6.8 20 0 20 C0 13.4 0 6.8 0 0 Z " fill="#EBF5FE" transform="translate(143,295)"/>
<path d="M0 0 C10.56 0 21.12 0 32 0 C32 1.98 32 3.96 32 6 C27.71 6 23.42 6 19 6 C19 14.58 19 23.16 19 32 C17.02 32 15.04 32 13 32 C13 23.42 13 14.84 13 6 C8.71 6 4.42 6 0 6 C0 4.02 0 2.04 0 0 Z " fill="#1786F9" transform="translate(172,289)"/>
<path d="M0 0 C6.27 0 12.54 0 19 0 C19 5.94 19 11.88 19 18 C12.73 18 6.46 18 0 18 C0 12.06 0 6.12 0 0 Z " fill="#FFFFFF" transform="translate(319,296)"/>
<path d="M0 0 C1.98 0 3.96 0 6 0 C6 8.58 6 17.16 6 26 C14.25 26 22.5 26 31 26 C31 27.98 31 29.96 31 32 C27.06739056 32.07421454 23.13505278 32.12863136 19.2019043 32.16479492 C17.20672299 32.18728333 15.21173787 32.22540198 13.21679688 32.26367188 C11.96318359 32.27333984 10.70957031 32.28300781 9.41796875 32.29296875 C8.26063232 32.3086792 7.1032959 32.32438965 5.91088867 32.34057617 C3 32 3 32 1.1171875 30.89648438 C-0.56600909 28.03916989 -0.33611498 25.65677694 -0.29296875 22.36328125 C-0.2784668 20.41518555 -0.2784668 20.41518555 -0.26367188 18.42773438 C-0.23860585 17.05598361 -0.21321101 15.68423882 -0.1875 14.3125 C-0.1724502 12.92905076 -0.1587623 11.54558599 -0.14648438 10.16210938 C-0.11107223 6.77434793 -0.06168054 3.38736861 0 0 Z " fill="#1886F9" transform="translate(278,289)"/>
<path d="M0 0 C1.31157326 -0.00956978 1.31157326 -0.00956978 2.64964294 -0.01933289 C4.07615929 -0.02100212 4.07615929 -0.02100212 5.53149414 -0.02270508 C6.98719566 -0.02769768 6.98719566 -0.02769768 8.4723053 -0.03279114 C10.52938359 -0.03786463 12.58647015 -0.04019933 14.64355469 -0.04003906 C17.79969783 -0.04222459 20.9554911 -0.06037324 24.11157227 -0.0793457 C26.10571169 -0.08227966 28.09985278 -0.08426444 30.09399414 -0.08520508 C31.0429808 -0.09239059 31.99196747 -0.09957611 32.9697113 -0.10697937 C33.84724564 -0.10390274 34.72477997 -0.10082611 35.62890625 -0.09765625 C36.4031041 -0.09908127 37.17730194 -0.10050629 37.97496033 -0.10197449 C39.87915039 0.14526367 39.87915039 0.14526367 41.87915039 2.14526367 C41.3434361 5.68097796 41.3434361 5.68097796 39.87915039 7.14526367 C38.50855446 7.24838404 37.13275381 7.2837532 35.75830078 7.29052734 C34.44672752 7.30009712 34.44672752 7.30009712 33.10865784 7.30986023 C31.68214149 7.31152946 31.68214149 7.31152946 30.22680664 7.31323242 C28.77110512 7.31822502 28.77110512 7.31822502 27.28599548 7.32331848 C25.22891719 7.32839197 23.17183064 7.33072668 21.11474609 7.33056641 C17.95860295 7.33275193 14.80280969 7.35090059 11.64672852 7.36987305 C9.65258909 7.372807 7.658448 7.37479178 5.66430664 7.37573242 C4.24082664 7.3865107 4.24082664 7.3865107 2.78858948 7.39750671 C1.91105515 7.39443008 1.03352081 7.39135345 0.12939453 7.38818359 C-0.64480331 7.38960861 -1.41900116 7.39103363 -2.21665955 7.39250183 C-4.12084961 7.14526367 -4.12084961 7.14526367 -6.12084961 5.14526367 C-5.4240149 0.54615459 -4.47897478 0.02207512 0 0 Z " fill="#26C6FA" transform="translate(229.120849609375,235.854736328125)"/>
<path d="M0 0 C2.5625 1.5625 2.5625 1.5625 4 4 C4.5787127 8.55736251 4.57141092 10.8323342 2.5625 14.9375 C-0.57899493 17.46602031 -2.82538499 18.03470031 -6.80859375 18.2578125 C-9 18 -9 18 -12 16 C-14.39388221 12.40917668 -15.0757667 10.31870169 -15 6 C-11.0444698 -1.36547002 -7.71522345 -1.72667523 0 0 Z " fill="#0BECFB" transform="translate(342,173)"/>
<path d="M0 0 C2.4375 0.4375 2.4375 0.4375 3.75708008 1.93286133 C6.07910538 4.0119899 7.67801671 3.86403361 10.76171875 3.94921875 C12.30375977 4.00239258 12.30375977 4.00239258 13.87695312 4.05664062 C15.48473633 4.09047852 15.48473633 4.09047852 17.125 4.125 C18.20845703 4.15916016 19.29191406 4.19332031 20.40820312 4.22851562 C23.0845322 4.3110456 25.76053159 4.38017937 28.4375 4.4375 C28.480221 6.10361905 28.47813832 7.77132885 28.4375 9.4375 C26.80038877 11.07461123 24.88934609 10.62342222 22.6328125 10.68359375 C21.65699219 10.71646484 20.68117187 10.74933594 19.67578125 10.78320312 C17.60817795 10.84416759 15.54046382 10.90148766 13.47265625 10.95507812 C12.49425781 10.98923828 11.51585937 11.02339844 10.5078125 11.05859375 C9.60820801 11.0836499 8.70860352 11.10870605 7.78173828 11.13452148 C5.16932294 11.29599778 5.16932294 11.29599778 2.4375 13.4375 C-1.125 13.25 -1.125 13.25 -4.5625 12.4375 C-6.72801116 9.18923326 -7.11406953 8.20655843 -6.5625 4.4375 C-4.53830677 1.66360557 -3.41064923 0.58230597 0 0 Z " fill="#1CACF9" transform="translate(192.5625,197.5625)"/>
<path d="M0 0 C1.56047445 0.00015913 3.12095416 0.00585397 4.68139648 0.01586914 C5.91115456 0.01799156 5.91115456 0.01799156 7.16575623 0.02015686 C9.79470406 0.0257725 12.42356797 0.0383276 15.05249023 0.05102539 C16.8304838 0.05603838 18.60847869 0.06060163 20.38647461 0.06469727 C24.75434569 0.07574701 29.12215371 0.09302208 33.48999023 0.11352539 C33.87217791 1.76967196 34.20394125 3.43809563 34.48999023 5.11352539 C33.48999023 6.11352539 33.48999023 6.11352539 29.97998047 6.22705078 C28.41950602 6.22689165 26.85902631 6.22119681 25.29858398 6.21118164 C24.47874527 6.20976669 23.65890656 6.20835175 22.81422424 6.20689392 C20.18527641 6.20127828 17.5564125 6.18872318 14.92749023 6.17602539 C13.14949667 6.1710124 11.37150177 6.16644915 9.59350586 6.16235352 C5.22563478 6.15130378 0.85782676 6.1340287 -3.51000977 6.11352539 C-3.89219744 4.45737882 -4.22396078 2.78895515 -4.51000977 1.11352539 C-3.51000977 0.11352539 -3.51000977 0.11352539 0 0 Z " fill="#17C3FA" transform="translate(233.510009765625,201.886474609375)"/>
<path d="M0 0 C3.96 0 7.92 0 12 0 C12.09765625 8.49609375 12.09765625 8.49609375 12 11 C11 12 11 12 8.49609375 12.09765625 C5.6640625 12.06510417 2.83203125 12.03255208 0 12 C0 8.04 0 4.08 0 0 Z " fill="#1886F9" transform="translate(155,346)"/>
<path d="M0 0 C6.6 0 13.2 0 20 0 C20 2.31 20 4.62 20 7 C13.4 7 6.8 7 0 7 C0 4.69 0 2.38 0 0 Z " fill="#E1EFFE" transform="translate(354,295)"/>
<path d="M0 0 C6.6 0 13.2 0 20 0 C20 2.31 20 4.62 20 7 C13.4 7 6.8 7 0 7 C0 4.69 0 2.38 0 0 Z " fill="#E1EFFE" transform="translate(213,295)"/>
<path d="M0 0 C0.99773437 0.02320313 1.99546875 0.04640625 3.0234375 0.0703125 C4.52777344 0.09738281 4.52777344 0.09738281 6.0625 0.125 C6.83335937 0.14820313 7.60421875 0.17140625 8.3984375 0.1953125 C8.3984375 1.1853125 8.3984375 2.1753125 8.3984375 3.1953125 C5.0984375 3.1953125 1.7984375 3.1953125 -1.6015625 3.1953125 C-1.6015625 3.8553125 -1.6015625 4.5153125 -1.6015625 5.1953125 C1.6984375 5.1953125 4.9984375 5.1953125 8.3984375 5.1953125 C8.3984375 6.1853125 8.3984375 7.1753125 8.3984375 8.1953125 C5.0984375 8.1953125 1.7984375 8.1953125 -1.6015625 8.1953125 C-1.6015625 8.8553125 -1.6015625 9.5153125 -1.6015625 10.1953125 C1.6984375 10.1953125 4.9984375 10.1953125 8.3984375 10.1953125 C8.3984375 11.1853125 8.3984375 12.1753125 8.3984375 13.1953125 C6.41934352 13.22217803 4.44014779 13.24164625 2.4609375 13.2578125 C1.35878906 13.26941406 0.25664062 13.28101563 -0.87890625 13.29296875 C-3.6015625 13.1953125 -3.6015625 13.1953125 -4.6015625 12.1953125 C-4.7261111 10.55300886 -4.77724774 8.90478974 -4.7890625 7.2578125 C-4.80324219 6.36191406 -4.81742187 5.46601563 -4.83203125 4.54296875 C-4.4894767 1.05355715 -3.45263451 0.25920679 0 0 Z " fill="#3596F9" transform="translate(303.6015625,344.8046875)"/>
<path d="M0 0 C1.51400391 0.01740234 1.51400391 0.01740234 3.05859375 0.03515625 C4.07050781 0.04417969 5.08242187 0.05320312 6.125 0.0625 C7.29869141 0.07990234 7.29869141 0.07990234 8.49609375 0.09765625 C8.49609375 1.08765625 8.49609375 2.07765625 8.49609375 3.09765625 C5.19609375 3.09765625 1.89609375 3.09765625 -1.50390625 3.09765625 C-1.50390625 3.75765625 -1.50390625 4.41765625 -1.50390625 5.09765625 C1.79609375 5.09765625 5.09609375 5.09765625 8.49609375 5.09765625 C8.49609375 6.08765625 8.49609375 7.07765625 8.49609375 8.09765625 C5.19609375 8.09765625 1.89609375 8.09765625 -1.50390625 8.09765625 C-1.50390625 8.75765625 -1.50390625 9.41765625 -1.50390625 10.09765625 C1.79609375 10.09765625 5.09609375 10.09765625 8.49609375 10.09765625 C8.49609375 11.08765625 8.49609375 12.07765625 8.49609375 13.09765625 C6.68367323 13.12452904 4.87114142 13.1439934 3.05859375 13.16015625 C2.04925781 13.17175781 1.03992188 13.18335938 0 13.1953125 C-2.50390625 13.09765625 -2.50390625 13.09765625 -3.50390625 12.09765625 C-3.60241796 10.26649742 -3.63363254 8.43145692 -3.62890625 6.59765625 C-3.63148438 5.59734375 -3.6340625 4.59703125 -3.63671875 3.56640625 C-3.4566415 0.21908801 -3.35465579 0.13083681 0 0 Z " fill="#3796F9" transform="translate(234.50390625,344.90234375)"/>
<path d="M0 0 C1.65322266 0.01740234 1.65322266 0.01740234 3.33984375 0.03515625 C4.99693359 0.04869141 4.99693359 0.04869141 6.6875 0.0625 C7.54214844 0.07410156 8.39679688 0.08570313 9.27734375 0.09765625 C9.27734375 0.75765625 9.27734375 1.41765625 9.27734375 2.09765625 C5.97734375 2.09765625 2.67734375 2.09765625 -0.72265625 2.09765625 C-0.72265625 2.75765625 -0.72265625 3.41765625 -0.72265625 4.09765625 C1.19546875 4.03578125 1.19546875 4.03578125 3.15234375 3.97265625 C5.33203125 3.90234375 5.33203125 3.90234375 7.27734375 4.09765625 C9.27734375 6.09765625 9.27734375 6.09765625 9.46484375 8.66015625 C9.27734375 11.09765625 9.27734375 11.09765625 8.27734375 12.09765625 C6.25770176 12.17009678 4.23567251 12.18142813 2.21484375 12.16015625 C1.11011719 12.15113281 0.00539062 12.14210938 -1.1328125 12.1328125 C-2.41478516 12.11541016 -2.41478516 12.11541016 -3.72265625 12.09765625 C-3.72265625 11.10765625 -3.72265625 10.11765625 -3.72265625 9.09765625 C-0.42265625 9.09765625 2.87734375 9.09765625 6.27734375 9.09765625 C6.27734375 8.43765625 6.27734375 7.77765625 6.27734375 7.09765625 C5.32021484 7.11505859 5.32021484 7.11505859 4.34375 7.1328125 C3.10431641 7.14634766 3.10431641 7.14634766 1.83984375 7.16015625 C0.60427734 7.17755859 0.60427734 7.17755859 -0.65625 7.1953125 C-2.72265625 7.09765625 -2.72265625 7.09765625 -3.72265625 6.09765625 C-3.84765625 3.59765625 -3.84765625 3.59765625 -3.72265625 1.09765625 C-2.72265625 0.09765625 -2.72265625 0.09765625 0 0 Z " fill="#2D91F9" transform="translate(252.72265625,345.90234375)"/>
<path d="M0 0 C1.58206057 0.00667536 3.16410534 0.0186375 4.74609375 0.03515625 C5.55240234 0.03966797 6.35871094 0.04417969 7.18945312 0.04882812 C9.18753131 0.06065107 11.18557158 0.07858711 13.18359375 0.09765625 C14.30859375 3.84765625 14.30859375 3.84765625 13.18359375 6.09765625 C7.57359375 6.09765625 1.96359375 6.09765625 -3.81640625 6.09765625 C-4.14640625 4.44765625 -4.47640625 2.79765625 -4.81640625 1.09765625 C-3.81640625 0.09765625 -3.81640625 0.09765625 0 0 Z " fill="#15D3FA" transform="translate(276.81640625,201.90234375)"/>
<path d="M0 0 C3.96 0 7.92 0 12 0 C12 3.96 12 7.92 12 12 C11.34 12 10.68 12 10 12 C10 10.35 10 8.7 10 7 C7.36 7 4.72 7 2 7 C2 8.65 2 10.3 2 12 C1.34 12 0.68 12 0 12 C0 8.04 0 4.08 0 0 Z " fill="#1987F9" transform="translate(193,346)"/>
<path d="M0 0 C0.99 0 1.98 0 3 0 C3 1.65 3 3.3 3 5 C5.31 5 7.62 5 10 5 C10 3.35 10 1.7 10 0 C10.99 0 11.98 0 13 0 C13 4.29 13 8.58 13 13 C12.01 13 11.02 13 10 13 C10 11.35 10 9.7 10 8 C7.69 8 5.38 8 3 8 C3 9.65 3 11.3 3 13 C2.01 13 1.02 13 0 13 C0 8.71 0 4.42 0 0 Z " fill="#3F9BFA" transform="translate(337,345)"/>
<path d="M0 0 C1.51400391 0.01740234 1.51400391 0.01740234 3.05859375 0.03515625 C4.07050781 0.04417969 5.08242188 0.05320312 6.125 0.0625 C7.29869141 0.07990234 7.29869141 0.07990234 8.49609375 0.09765625 C8.49609375 0.75765625 8.49609375 1.41765625 8.49609375 2.09765625 C5.52609375 2.09765625 2.55609375 2.09765625 -0.50390625 2.09765625 C-0.50390625 4.40765625 -0.50390625 6.71765625 -0.50390625 9.09765625 C2.79609375 9.09765625 6.09609375 9.09765625 9.49609375 9.09765625 C9.49609375 10.08765625 9.49609375 11.07765625 9.49609375 12.09765625 C7.51699977 12.12452178 5.53780404 12.14399 3.55859375 12.16015625 C2.45644531 12.17175781 1.35429687 12.18335938 0.21875 12.1953125 C-2.50390625 12.09765625 -2.50390625 12.09765625 -3.50390625 11.09765625 C-3.60214562 9.43336574 -3.63364256 7.76483694 -3.62890625 6.09765625 C-3.63148438 5.19015625 -3.6340625 4.28265625 -3.63671875 3.34765625 C-3.44818505 0.15367356 -3.21403411 0.12535234 0 0 Z " fill="#3495F9" transform="translate(321.50390625,345.90234375)"/>
<path d="M0 0 C3 0.25 3 0.25 5 2.25 C5.25 4.75 5.25 4.75 5 7.25 C3 9.25 3 9.25 0 9.5 C-3 9.25 -3 9.25 -5 7.25 C-5.25 4.75 -5.25 4.75 -5 2.25 C-3 0.25 -3 0.25 0 0 Z " fill="#0CEAFB" transform="translate(333,147.75)"/>
<path d="M0 0 C4.29 0 8.58 0 13 0 C13 0.99 13 1.98 13 3 C11.35 3 9.7 3 8 3 C8 6.3 8 9.6 8 13 C7.01 13 6.02 13 5 13 C5 9.7 5 6.4 5 3 C3.35 3 1.7 3 0 3 C0 2.01 0 1.02 0 0 Z " fill="#419CFA" transform="translate(280,345)"/>
<path d="M0 0 C2.64 0 5.28 0 8 0 C8 2.64 8 5.28 8 8 C5.36 8 2.72 8 0 8 C0 5.36 0 2.72 0 0 Z " fill="#E1EFFE" transform="translate(157,348)"/>
<path d="M0 0 C1.91015625 0.1328125 1.91015625 0.1328125 3.91015625 1.1328125 C3.58015625 2.7828125 3.25015625 4.4328125 2.91015625 6.1328125 C-0.05984375 6.1328125 -3.02984375 6.1328125 -6.08984375 6.1328125 C-6.47203142 4.47666593 -6.80379477 2.80824226 -7.08984375 1.1328125 C-5.19099279 -0.76603846 -2.51736472 0.00913744 0 0 Z " fill="#10DAFA" transform="translate(298.08984375,247.8671875)"/>
<path d="M0 0 C1.23556641 0.01740234 1.23556641 0.01740234 2.49609375 0.03515625 C3.32238281 0.04417969 4.14867187 0.05320313 5 0.0625 C5.63808594 0.07410156 6.27617187 0.08570313 6.93359375 0.09765625 C7.55859375 1.97265625 7.55859375 1.97265625 7.93359375 4.09765625 C5.93359375 6.09765625 5.93359375 6.09765625 3.98828125 6.29296875 C1.97005208 6.22786458 -0.04817708 6.16276042 -2.06640625 6.09765625 C-2.44859392 4.44150968 -2.78035727 2.77308601 -3.06640625 1.09765625 C-2.06640625 0.09765625 -2.06640625 0.09765625 0 0 Z " fill="#0EE0FA" transform="translate(307.06640625,224.90234375)"/>
<path d="M0 0 C3.5625 0.1875 3.5625 0.1875 5.5625 2.1875 C5.1875 4.3125 5.1875 4.3125 4.5625 6.1875 C1.9225 6.1875 -0.7175 6.1875 -3.4375 6.1875 C-3.81968767 4.53135343 -4.15145102 2.86292976 -4.4375 1.1875 C-3.4375 0.1875 -3.4375 0.1875 0 0 Z " fill="#12D0FA" transform="translate(275.4375,212.8125)"/>
<path d="M0 0 C0.66 0 1.32 0 2 0 C2 2.97 2 5.94 2 9 C5.3 9 8.6 9 12 9 C12 9.99 12 10.98 12 12 C10.18757948 12.02687279 8.37504767 12.04633715 6.5625 12.0625 C5.55316406 12.07410156 4.54382813 12.08570313 3.50390625 12.09765625 C1 12 1 12 0 11 C-0.07226502 9.14712498 -0.0838122 7.29166122 -0.0625 5.4375 C-0.05347656 4.42558594 -0.04445312 3.41367187 -0.03515625 2.37109375 C-0.02355469 1.58863281 -0.01195312 0.80617188 0 0 Z " fill="#2C91F9" transform="translate(212,346)"/>
<path d="M0 0 C1.51400391 0.01740234 1.51400391 0.01740234 3.05859375 0.03515625 C4.07050781 0.04417969 5.08242188 0.05320312 6.125 0.0625 C7.29869141 0.07990234 7.29869141 0.07990234 8.49609375 0.09765625 C8.49609375 1.08765625 8.49609375 2.07765625 8.49609375 3.09765625 C5.19609375 3.09765625 1.89609375 3.09765625 -1.50390625 3.09765625 C-1.50390625 3.75765625 -1.50390625 4.41765625 -1.50390625 5.09765625 C1.79609375 5.09765625 5.09609375 5.09765625 8.49609375 5.09765625 C8.49609375 5.42765625 8.49609375 5.75765625 8.49609375 6.09765625 C4.86609375 6.09765625 1.23609375 6.09765625 -2.50390625 6.09765625 C-2.83390625 4.44765625 -3.16390625 2.79765625 -3.50390625 1.09765625 C-2.50390625 0.09765625 -2.50390625 0.09765625 0 0 Z " fill="#4EA2FA" transform="translate(303.50390625,344.90234375)"/>
<path d="M0 0 C3.96 0 7.92 0 12 0 C12 0.66 12 1.32 12 2 C10.35 2 8.7 2 7 2 C7 5.3 7 8.6 7 12 C6.34 12 5.68 12 5 12 C5 8.7 5 5.4 5 2 C3.35 2 1.7 2 0 2 C0 1.34 0 0.68 0 0 Z " fill="#1786F9" transform="translate(174,346)"/>
<path d="M0 0 C2.0625 0.4375 2.0625 0.4375 4 1 C4 2.65 4 4.3 4 6 C2.125 6.625 2.125 6.625 0 7 C-0.66 6.34 -1.32 5.68 -2 5 C-1.46428571 1.46428571 -1.46428571 1.46428571 0 0 Z " fill="#1DE4FB" transform="translate(321,163)"/>
<path d="M0 0 C2.64 0 5.28 0 8 0 C8 0.99 8 1.98 8 3 C5.36 3 2.72 3 0 3 C0 2.01 0 1.02 0 0 Z " fill="#CAE3FD" transform="translate(195,348)"/>
<path d="M0 0 C0.99 0.33 1.98 0.66 3 1 C3 1.66 3 2.32 3 3 C5.64 3 8.28 3 11 3 C11 3.33 11 3.66 11 4 C8.36 4 5.72 4 3 4 C3 4.66 3 5.32 3 6 C2.01 5.67 1.02 5.34 0 5 C0 3.35 0 1.7 0 0 Z " fill="#5DAAFA" transform="translate(249,347)"/>
</svg>
